<?xml version="1.0" encoding="utf-8"?>
<!-- Generator: Adobe Illustrator 26.0.1, SVG Export Plug-In . SVG Version: 6.00 Build 0)  -->
<svg version="1.1" id="Layer_1" xmlns="http://www.w3.org/2000/svg" xmlns:xlink="http://www.w3.org/1999/xlink" x="0px" y="0px"
	 viewBox="0 0 595.3 841.9" style="enable-background:new 0 0 595.3 841.9;" xml:space="preserve">
<style type="text/css">
	.st0{fill:#FFFFFF;}
</style>
<g>
	<path d="M305.6,762.7C191.8,762.9,100.1,671,99.9,556.6c-0.1-114.9,91.8-208.5,205.9-207.6c119.1,0.8,206.9,95.8,206.9,207.2
		C512.8,670.7,420.7,762.5,305.6,762.7z M214.6,634.7c-14.9-18-16.2-41.2-35.1-53.5c-3.8-2.5-4.9-8.8-7.7-12.9
		c-5.5-7.7-11.3-15.2-17.1-22.9c-7.9-10.4-15.7-20.6-23.5-30.8c15.4-10.4,27.7-18.7,42.7-28.8c0,12.9,0.1,23.2,0,33.7
		c-0.1,11,3.6,15.4,16,14.4c15.5-1.2,31.3-0.2,46.7,1.9c9,1.3,15.4,1.3,22.3-5.7c11-11.3,25.5-9.8,33.8,3.9
		c5.8,9.8,9.2,21.1,14.8,34.3c-18.5-10-30.7-4.4-42.4,7.1c-6.1,6.1-13.6,11.3-21.2,15.4c-26.8,14.3-26.9,14-1.7,33.2
		c2.6,1.9,4.9,4.6,7.7,5.7c6.2,2.4,12.6,3.9,21,6.4c-6.8-13.3-11.9-23.2-18-34.9c36.8,0,70.2,0,106.8,0
		c-6.2,11.9-11.3,21.8-16.4,31.6c24.4,5.1,54.1-12.4,52.7-31.9c-26-5.1-47.5-32.7-78.2-16.1c1.4-9.2,2.6-18.6,4.6-27.9
		c4.4-19.6,20.4-25.4,38.1-15c4.3,2.5,11.1,2.5,16.2,1.4c15.7-3.1,31.1-8.8,46.9-10.7c11-1.3,13.5-5.4,11.9-15
		c-1.9-11.7-3.5-23.2-5.4-36.4c17.3,7.7,32.6,14.6,50.7,22.9c-6.4,11.9-12.3,22.6-18.1,33.3c-4.5,8.5-10.5,16.4-13.3,25.4
		c-4.9,15.4-10.1,29.8-26.1,37.1c-1.5,0.7-3.3,2.1-3.7,3.7c-3,9.8-5.6,19.6-8.6,30.8c20.2,0,40.5-0.6,60.6,0.2
		c10.5,0.5,16-3.6,17.4-13.1c3.8-23.9,10.1-48.1,10.1-72c-0.1-112.7-105.8-203.2-217.6-186.6c-78.1,11.5-131.6,55.6-159.1,129.2
		c-16,42.7-15.2,87,1.2,130.3c1.9,4.9,7.9,11.5,12.3,11.7C161.3,635.3,186.7,634.7,214.6,634.7z M135.8,647.4
		c26.8,62.5,111.2,109.9,182.5,103.3c69.5-6.3,146.1-56.8,156.7-103.3C362,647.4,249.2,647.4,135.8,647.4z M244,632.8
		c-8.2-11.5-28.1-13.2-25.5-31.9c-12.6,0.1-17.3,6.2-12.7,15.1C213.1,629.9,226.8,636.2,244,632.8z M380.6,633.5
		c19.2,3.1,27.1-1,33.1-18.8c1.1-3.1-0.2-8-2.1-10.7c-0.8-1.2-7.6-0.4-9.3,1.5C394.7,614.4,387.9,624,380.6,633.5z"/>
	<path d="M79.3,473.5c-16.4-7.1-28.1-12.3-43.6-18.9c6.7-9.4,11.2-22.6,18.8-24.8c8.3-2.4,24.5,2.9,28.3,9.8
		C87,447,81.1,460.2,79.3,473.5z"/>
	<path d="M331.8,834.3c-8.6-32.1-8.8-40-0.8-46c1.4,4.4,2.9,8.6,3.3,9.9c8.8,1.5,18.2,0.5,21.9,4.5c4.2,4.8,5.8,14.5,4.2,21.1
		C356.3,840.5,340.8,828.9,331.8,834.3z M355.4,816.6c-4.3-4.5-7.4-7.9-10.4-11.2c-2.7,3-8.1,6.5-7.6,8.9c0.8,4.6,5.1,8.7,7.9,12.9
		C348.1,824.2,351,821.2,355.4,816.6z"/>
	<path d="M122.6,692.4c9.3,17.3-8.7,23.8-9.3,35.4c11.5,2.1,21.3-14.6,37.3-2.5c-16.1,6.2-29.5,11.7-43.1,16.3
		c-2.1,0.7-6.9-1-7.9-2.9c-1.3-2.6-1.3-7,0.2-9.6C106.4,717.5,113.8,706.5,122.6,692.4z"/>
	<path d="M356.3,319.6c0.8-5.8,2.1-11.7,2.4-17.5c0.1-2.7-1.7-5.6-2.5-8.3c-2.6,1.9-6.5,3.1-7.7,5.7c-2.5,5.2-3.6,11.1-7,16.4
		c-6.4-10.5,0.5-19.8,2.4-29.6c12.1,2.3,23.7,3.7,34.6,6.9c3.6,1.1,8,6.8,8,10.4c0,7.1-2.7,14.3-7.4,22.3c-1.3-2.6-3.6-5.1-3.6-7.7
		c0-4,2.1-8,2.4-12.1c0.1-2.3-1.8-4.6-2.7-6.9c-2.5,1.4-6.1,2.4-7.1,4.5c-2.6,5.5-4,11.5-6.1,17.3C360,320.4,358.2,320,356.3,319.6z
		"/>
	<path d="M262.7,317.9c4.3-15.5,7.3-27.7,11.5-39.5c0.8-2.1,10.5-3.8,11-3c6.5,11.9,12.1,24.4,19.6,40
		C282.6,305.9,282.6,305.9,262.7,317.9z"/>
	<path d="M223.6,785.4c0.5-1,2.5-5,4.5-8.9c8.1,5,3.9,21.3-11.2,44.9c-8.3-6.3-24.9-1.9-25-18.1c-0.1-6.3,4-15.4,9-18.3
		C205.8,781.8,214.5,784.9,223.6,785.4z M221.5,798.3c-5.1-3.9-10.1-9-11.3-8.3c-4.2,2.6-8.3,6.9-9.8,11.4c-0.7,2.3,4.5,6.4,7.1,9.8
		C211.7,807.4,215.7,803.7,221.5,798.3z"/>
	<path d="M385.7,795.2c-5.4,2.6-10.8,5.2-17.4,8.5c-0.7-12,8.1-14.3,15.5-14.6c19.8-0.8,12.9,18.3,20.7,27.6
		c-6.3,2.9-11.4,6.5-16.8,7.1c-5,0.6-10.4-2-15.6-3.2c2.1-4.9,3.8-10.1,6.8-14.5c1.9-2.7,5.8-4,8.9-6
		C387,798.5,386.4,796.8,385.7,795.2z"/>
	<path d="M433.8,749.2c4.5,5.6,8.9,11.2,13.8,17.3c2.5-7,4.6-12.9,6.8-18.8c3.6,13.3,3.6,13.3,24.3,23.7
		c-6.3,13.1-15.1-0.5-22.1,1.9c-0.5,1-1.3,1.8-1.2,2.5c0.6,4.4,1.4,8.7,2.1,13.1c-3.7-2.7-8.1-4.9-11.1-8.3
		c-5.5-6.2-10.6-12.7-15-19.8c-1.8-2.9-1.3-7-1.9-10.6C431.1,749.8,432.5,749.4,433.8,749.2z"/>
	<path d="M186.2,791.7c-7.1-3.9-13.7-7.6-20.1-11.2c-1,1.5-1.9,3-2.9,4.5c5.4,3.3,10.7,6.8,17,10.7c-5.2,7-11.8,4-17.5,0
		c-9.3-6.5-9.4-15.6-3.6-24.2c6.2-9,15.8-9.9,24.3-4.4C192.8,773.3,191.9,782.2,186.2,791.7z"/>
	<path d="M481.9,750.9c14.9,4.9,13.7-8.2,18.8-14.3c6.1,10.2,1.3,16.5-5.8,21.2c-9.9,6.5-18.9,1.7-23-6.9c-2.6-5.6-1.7-16,2.1-20.6
		c6.5-8,16-7.1,24.1,1.9C493,738,488.1,743.7,481.9,750.9z"/>
	<path d="M301.2,821.6c-8,0-15.4,0-22.7,0c-0.1,1.7-0.4,3.3-0.5,5c6.8,0.6,13.7,1.2,21.2,1.8c-4.8,9.6-12.4,9.5-20.5,6.1
		c-9.9-4.3-11.7-12.5-8.3-21.8c3.2-8.9,10.1-13.7,19.4-11.3C299.5,803.6,303.3,810.8,301.2,821.6z"/>
	<path d="M148.4,370.4c-9,10.2-15.6,11.2-24.1,2.7c-9.2-9.3-7.4-13.8,13.2-32.4c6.8,7.5,13.7,14.9,20,22.7c2.1,2.7,2.6,6.8,3.8,10.4
		C157.7,372.9,153.9,371.8,148.4,370.4z M132.7,349.5c-2.7,5.4-6.1,9.2-5.2,10.7c2.1,3.9,6.1,6.8,9.4,10.1c2.3-2.7,7-6.4,6.3-8.1
		C141.7,358.2,137.6,355.1,132.7,349.5z"/>
	<path d="M481.9,352.7c5.6,3.8,16.3,8.5,15.8,11.3c-1.5,9.6-7,18.7-11.1,27.9c-2,0.1-4,0.1-6.1,0.2c-4.9-7.7-15.4-17.1-13.7-23
		c5.4-18.2,16.3,6,26.9-2.3c-5.6-3.2-10.2-6-14.9-8.6C479.9,356.4,481,354.6,481.9,352.7z"/>
	<path d="M421.7,778.7c-12.4,6.5-6.9,13.3-3.7,20.6c1.5,3.5,1.1,7.9,1.4,11.8c-3-2.6-6.8-4.8-8.9-8c-3.8-5.7-6.5-12-10.5-19.3
		c3.6-1.3,6.4-2.1,9-3.3c5.7-2.6,14.4-9.2,16.7-7.4c6.5,5.1,10.6,13.3,15.1,20.6c1,1.5-0.5,4.5-0.8,6.9c-2.5-1.1-6-1.5-7.4-3.5
		C428.6,791.2,425.3,784.9,421.7,778.7z"/>
	<path d="M82,404.8c-2.9,7.6-4.8,12.9-6.7,18.2c-1.7-0.6-3.2-1.2-4.9-1.8c2.5-6.3,3.3-14.8,8-18.3c12.7-9.9,18.1,7.4,32.4,9.3
		c-8.5,8.9-15.6,21.7-21,21C71.5,430.7,90.6,415.8,82,404.8z"/>
	<path d="M489.3,712.4c6.7-7,12.6-18.5,18.9-18.7c8.5-0.4,17.1,8.1,25.8,12.7c-0.7,1.9-1.3,3.9-2,5.8c-3.8-1.1-7.5-2-11.3-3.1
		c-5.8-1.7-16.1-5.8-16.8-4.5c-5.6,9.5,4.5,11.5,9.5,16.1c2.4,2,4.9,3.9,7.4,6C514.1,733.3,504,728.7,489.3,712.4z"/>
	<path d="M420,326.4c-7.1-2.1-13.5-4-19.8-6c-0.6,1.4-1.3,2.9-1.9,4.2c5,2.1,9.9,4.4,14.9,6.5c0.1,1,0.2,1.8,0.4,2.7
		c-5.2-0.2-11.3,1-15.7-1.1c-8.6-4.2-9-12.5-5.5-20.2c3.8-8.1,11.2-11.3,19.6-7.6C421.1,308.8,423.2,316.1,420,326.4z"/>
	<path d="M535.3,442.6c-4.2-6.1-7.7-11.3-11.3-16.4c-1.4,0.7-2.9,1.4-4.3,2.1c2.9,5.2,5.6,10.4,8.5,15.6c-0.7,0.8-1.5,1.8-2.3,2.6
		c-4.2-4.5-11.7-8.9-11.8-13.6c-0.2-5.7,4.3-14.8,9.2-16.8c4.9-2,14.8,0.8,18.6,5C548.5,428.6,544.7,436.4,535.3,442.6z"/>
	<path d="M212,324.4c-0.2,9.8-7.7,14.4-14.9,13.1c-5.7-1.1-13.6-7.9-14.6-13.2c-1-5.1,4.4-14.6,9.3-16.7c4.9-2,12.6,2.7,19.2,4.6
		c-0.2,1.7-0.4,3.3-0.6,5c-6,3.2-11.9,6.4-17.9,9.6c0.5,1.3,0.8,2.6,1.3,4C199.8,328.8,205.6,326.7,212,324.4z"/>
	<path d="M231.9,815.5c6.5,3.2,12.3,6,17.9,8.6c0.7-1.3,1.5-2.6,2.3-3.9c-3-2.4-6.5-4.3-8.9-7.3c-3-3.8-5.1-8.3-7.6-12.6
		c5.2-1.7,10.7-5.2,15.6-4.6c4.6,0.7,8.8,5.7,13.1,8.9c-0.8,1.1-1.8,2.3-2.6,3.3c-5.1-2.5-10.1-5-18.3-8.9
		c4.8,12.4,22.9,12.4,15.6,26.1c-1.8,3.3-9.3,5.4-13.9,4.9C237.9,829.3,231.1,826,231.9,815.5z"/>
	<path d="M169.2,319c5.2,7.9,10.6,15.6,18.1,26.7c-10.2,3.5-19.8,10.2-27,8.2c-6.7-1.9-13.6-11.8-12.7-21.5c1.2-0.7,2.4-1.4,3.6-2.3
		c2.9,3.7,5.4,7.9,8.7,11c2.9,2.6,6.9,3.9,10.4,5.8c-0.1-4.2,0.5-8.6-0.6-12.5c-1.1-4-3.8-7.7-5.8-11.7
		C165.5,321.7,167.4,320.4,169.2,319z"/>
	<path d="M111.8,408.2c-7.5-6.3-15-12.7-24.1-20.4c11.5-2.9,9.5-25.2,26.9-14.4c12.3,7.6,13.9,10.8,10.7,19
		c-2.3-1.7-4.2-3.7-6.5-4.9c-5.1-2.5-10.5-4.6-15.8-7c2.3,5.2,4.4,10.6,6.9,15.7c1.5,3.1,3.6,6,5.4,8.9
		C114.2,406.4,113,407.4,111.8,408.2z"/>
	<path d="M433.8,316.1c24.9,16.8,24.9,16.8,6,41.6c-1-4.6-2.6-7.7-1.8-10c1.4-4.3,4.8-7.9,6.4-12.1c0.8-2-0.4-4.9-0.7-7.3
		c-2.9,0.5-6.7-0.1-8.2,1.4c-4.2,4.6-7.4,10.1-11.2,15.5C418.5,337.7,418.5,337.7,433.8,316.1z"/>
	<path d="M554.4,467.6c-1.1-4.6-2-9.4-3.1-14c-3.9,8.3-7.1,15.2-10.2,22c-3.8-2.1-9.5-3.5-10.8-6.7c-2.1-5.2-1.3-11.8-1.7-17.7
		c1.5-0.1,3.1-0.2,4.6-0.2c0.8,5.6,1.8,11.2,2.6,16.8c1.4,0,2.9,0,4.3-0.1c0.2-3.2-0.1-6.5,1-9.5c1.5-4.4,4-8.6,6.2-12.7
		c4,3.6,9.2,6.7,11.8,11.1c1.5,2.6-0.7,7.5-1.2,11.4C556.7,467.9,555.6,467.7,554.4,467.6z"/>
	<path d="M237.1,299.9c-4.8,0.2-9.5,0.5-14.3,0.8c-0.1,1.3-0.2,2.5-0.4,3.8c3.6,0.6,7.3,0.8,10.6,2c3.8,1.4,7.1,3.7,10.7,5.6
		c-2.9,4.2-4.8,10-8.7,11.9c-4.4,2-10.5,0.5-15.8,0.5c0.1-1.7,0.2-3.2,0.2-4.9c5.2-0.5,10.5-0.8,18.8-1.7
		c-11-5.7-17.9-9.4-24.6-13.1c3-3.2,5.2-7.9,8.9-9.2c4.4-1.5,9.9-0.4,14.9-0.4C237.3,296.9,237.3,298.4,237.1,299.9z"/>
	<path d="M455.5,367.5c-3.7-2.4-7.9-8.9,0.2-14.6c7-5,0.7-18,12.9-18.2c2.9-0.1,5.7-0.8,8.6-1.3c-0.7,4.9,0.1,10.8-2.4,14.4
		C469.8,354.6,463,360,455.5,367.5z"/>
	<path d="M314.1,836.1c-1.2-2.9-3.1-5.7-3.3-8.7c-0.7-10.5-1.1-21.1-1.1-31.7c0-1.9,2.5-3.9,3.9-5.8c1.5,1.8,4.3,3.6,4.3,5.4
		c0.4,13.2,0.2,26.4,0.2,39.6C316.7,835.4,315.4,835.8,314.1,836.1z"/>
	<path d="M496.7,407.5c7.5-5.7,15-11.3,23-17.3c4.3,5.4,8.1,9.9,11.4,14c-11.4,2.1-22.3,4.2-33.2,6.2
		C497.4,409.4,497,408.5,496.7,407.5z"/>
	<path d="M310,313.3c0-13.8,0-27.6,0-41.4c1.1,0.1,2.3,0.2,3.3,0.2c0,13.9,0,27.7,0,41.7C312.1,313.7,311.1,313.6,310,313.3z"/>
	<path d="M513.8,383.7c-5.5,4.8-10.7,9.8-16.4,14c-2,1.5-5.4,1.4-8,2.1c0.7-2.6,0.6-6.1,2.3-7.9c4-4.3,8.7-8.1,13.5-11.3
		c2-1.3,5.4-0.7,8-1.1C513.4,381.1,513.6,382.4,513.8,383.7z"/>
	<path d="M322.3,313.8c1.1-9.8,2.3-19.6,3.3-29.4c2.1,0.2,4.3,0.5,6.4,0.7c-1,9.9-1.9,19.8-2.9,29.8
		C326.9,314.5,324.5,314.2,322.3,313.8z"/>
	<path class="st0" d="M244,632.8c-17.3,3.5-31-2.7-38.1-16.8c-4.6-8.9,0.1-15,12.7-15.1C215.9,619.4,235.8,621.2,244,632.8z"/>
	<path class="st0" d="M380.6,633.5c7.3-9.5,14-19.2,21.7-28c1.7-1.9,8.5-2.7,9.3-1.5c1.9,2.9,3.2,7.6,2.1,10.7
		C407.9,632.5,399.8,636.6,380.6,633.5z"/>
</g>
</svg>
