<?xml version="1.0" encoding="utf-8"?>
<!-- Generator: Adobe Illustrator 26.0.1, SVG Export Plug-In . SVG Version: 6.00 Build 0)  -->
<svg version="1.1" id="Layer_1" xmlns="http://www.w3.org/2000/svg" xmlns:xlink="http://www.w3.org/1999/xlink" x="0px" y="0px"
	 viewBox="0 0 1366 768" style="enable-background:new 0 0 1366 768;" xml:space="preserve">
<g>
	<path d="M677.1,298.7c20.5-124.6,84.6-216.1,198.2-270.3c84.1-40.2,179.9-37.6,242.3-15.4c-1,3.1-2,6.3-3.1,9.7
		C1004-7,902.3,10.1,812.2,80.9c-71,55.8-112.4,130-122.6,219.6c-21.8,190.8,115.3,346.3,287,367.4
		c207.2,25.4,378.4-142.2,372-335.4c3.3,0,6.5,0,9.8,0c8.9,120.8-73.1,292.1-256.2,338.7c-99.7,25.3-193.5,8.7-278.2-49.7
		c-84.3-58.1-131.8-139.7-146.3-241.8c-21.3,183.6-187.9,310.9-362.9,295.3C139.9,659.7,11.7,515.8,7.1,349.7
		C2.3,177.5,126.3,32.8,290.1,7.4C383.6-7,469.5,13.8,545.3,71C620.6,127.9,663.4,204.4,677.1,298.7z M448,261.8
		c0.8,3,0.8,6.2,2.4,7.8c2.3,2.3,5.6,4.7,8.6,5c4.4,0.4,5.9-3.2,6.1-7.4c1.5-46.6-16.5-83.7-54.6-110.7c-14.5-10.3-24.1-8.2-35.1,6
		c-4.2,5.4-7.8,11.3-12.4,16.2c-4.5,4.8-9.9,5.1-14.7-0.5c11.7-9.5,14.9-18.3,11-29.5c-2.6-7.5-8.2-12-15.9-12.1
		c-7.7-0.1-13.2,4.3-16.1,11.7c-4.4,11.4-1.3,20.2,10.5,29.9c-5.7,5.2-10.2,5.4-15.3-0.2c-4.1-4.4-7.1-9.7-10.8-14.4
		c-12.7-16.2-22.4-17.7-38.8-5.2c-35.9,27.5-53.8,63.6-51.2,109.2c0.1,2.3,2.2,6.1,3.8,6.3c2.9,0.5,7-0.3,8.9-2.2
		c2.4-2.3,3-6.4,4.4-9.7c11.3,3,12.4,2.3,17.3-10.7c11.7,2,12.1,1.7,16.8-10.8c4.5-0.5,9.5,0.3,12.2-1.8c2.7-2,3-7,4.4-10.7
		c12.1,3,14.4,1.6,17.1-10.3c4.3,0,8.6,0,13.4,0c4.4,7.7,3,16,0.1,24.5c-0.8,2.2-1.6,5.8-0.5,7.1c7.3,8.8,15.1,17.1,23.5,26.4
		c7.8-8.5,14.3-15.7,20.9-22.6c3.3-3.5,3.8-6.7,2-11.3c-3-8.2-4.3-16.6,0.2-24c5.1,0,9.3,0,13.4,0c2.6,12,4,12.8,17.5,10.6
		c2.3,12.9,3.4,13.7,16.2,11.3c2.9,12.3,4.4,13.3,17.1,12.1C434.1,263.8,435.9,265,448,261.8z M248.3,416.2
		c2.9-3.6,5.7-7.4,8.7-11.1c11.5-14,12.1-29.5,5.1-45.1c-6.4-14.3-18.4-20.7-34.2-20.5c-26.3,0.3-52.6,0.1-78.9,0.1
		c-2.8,0-5.5,0.3-8.4,0.4c0,52,0,103.1,0,155.1c3.3,0,6.1,0,9,0c22.6,0,45.2,0.2,67.9-0.1c7-0.1,14.2-0.8,21.1-2.2
		c20.7-4.1,31.8-15.9,34.7-36.3c2.5-17.6-5-30-24.1-39.8C248.3,416.3,247.5,415.6,248.3,416.2z M417.4,339.6
		c-14.2,0-26.6,0.3-38.9-0.1c-5.6-0.2-8.5,1.9-11.1,6.5c-7.8,13.8-16,27.4-24.4,41.7c-7.4-12.7-15-24.2-21-36.4
		c-4.5-9.3-10.3-13-20.7-11.9c-10.4,1.1-21.1,0.2-32.7,0.2c16.8,25.6,32.4,49.8,48.4,73.8c2.3,3.4,2.4,5.4,0.1,8.9
		c-8.5,12.6-16.5,25.6-24.6,38.4c-7.2,11.4-14.5,22.8-22.4,35.4c15.5,0,29.6,0.2,43.7-0.2c1.9-0.1,4.3-2.6,5.5-4.5
		c7.9-13.6,15.5-27.4,23.7-42c5.5,9.4,11.9,17.7,15.5,27c6.4,16.3,17.3,21.6,34,19c7.2-1.1,14.8-0.2,23.6-0.2
		c-16-25-30.7-48.2-45.8-71.3c-2.8-4.3-3.2-7.4-0.1-11.9c7.5-10.7,14.5-21.8,21.7-32.8C400,366.5,408.2,353.8,417.4,339.6z
		 M432.5,340c0,51.7,0,103.5,0,155.5c37.6,0,75.1,0,112.5,0c0-12.8,0-25,0-37.9c-23.6,0-46.7,0-70.4,0c0-39.5,0-78.3,0-117.5
		C460.3,340,446.7,340,432.5,340z"/>
	<path d="M1249.2,295.2c-0.9-19.2-5.1-37.1-17.5-52.2c-16.5-20.1-39-27.6-63.9-29.6c-37.3-2.9-73.2,4.5-108.6,15.2
		c-43.7,13.2-86.6,28.4-126.5,51.8c4-3.3,7.9-6.7,12-9.9c4.3-3.4,8.7-6.8,13.1-10.1c45-34.1,91.5-65.9,142.8-90.2
		c23.8-11.3,48.3-21,74.8-23.3c10.1-0.9,20.6-0.5,30.5,1.5c22,4.3,35.4,19.3,41.7,39.8C1258.6,223.6,1257.5,259.5,1249.2,295.2z"/>
	<path d="M1188.1,101.2c-0.2-16.6,13.4-30.5,30.3-30.9c16.8-0.4,31,13.1,31.4,29.8c0.4,17-13.5,31.1-30.8,31.2
		C1202,131.4,1188.3,118.1,1188.1,101.2z"/>
	<path d="M1156.9,424c3.9,0,6.7,0,10.3,0c4.8,20,9.7,40,15,61.9c5.9-21.7,11.3-41.5,16.6-61.1c7.7-2.9,11.1-0.6,12.8,7.2
		c3.7,17.3,8.2,34.4,12.8,53.4c4.1-15.3,7.8-29.1,11.5-42.9c1-3.8,2.4-7.5,3-11.4c1-6.8,4.5-8.9,11.6-6.4
		c-5,17.3-10.1,34.6-15.1,51.9c-1.2,4.3-2.6,8.5-3.9,12.8c-2.5,8.4-2.5,8.4-12.7,7.9c-4.9-19.6-9.8-39.5-15-60.3
		c-5.8,20.5-11.3,40.3-16.9,60.2c-3.4,0-6.5,0-10.4,0C1170,473.2,1163.6,449,1156.9,424z"/>
	<path d="M1113.4,465.5c7.4-12.7,14.4-24.3,20.9-36.2c2.6-4.9,5.6-6.4,11-4.5c0,24,0,48,0,72.4c-2.8,0-5.3,0-8.8,0
		c0-16.7,0-33.2,0-49.8c-0.5-0.1-1-0.2-1.5-0.3c-7.1,12.1-14.1,24.1-21.5,36.8c-7.5-12.8-14.6-24.8-21.6-36.9
		c-0.5,0.1-0.9,0.3-1.4,0.4c0,16.4,0,32.7,0,49.7c-3.1,0.2-5.6,0.4-8.7,0.6c0-24.4,0-48.4,0-72.8c5-2.2,8.1-0.5,10.9,4.6
		C1099,441.3,1106.1,452.9,1113.4,465.5z"/>
	<path d="M951.9,423.4c21.3-0.1,37.7,15.9,38,36.8c0.3,21.2-16.5,38.3-37.6,38.3c-20.7,0-37.6-16.9-37.6-37.6
		C914.8,439.7,930.8,423.5,951.9,423.4z M924.2,460.9c0,15.6,12.2,28,27.8,28.2c15.8,0.2,28.4-12.4,28.4-28.4
		c0-15.7-12.2-28-27.8-28.1C936.7,432.5,924.2,445,924.2,460.9z"/>
	<path d="M979.3,345.5c-2.1,1.9-4.2,3.7-6.2,5.4c-18.3-11.6-31.5-10.8-42.7,2.2c-8.6,10-8.4,26,0.4,36.2c10.4,12,24.6,12.6,42.1,1.5
		c2,1.7,4.2,3.5,6.3,5.3c-14.6,15.7-38.1,16.4-52.9,2c-15.5-15.2-15.5-39.1,0-54.3C941.2,329.1,964.6,329.7,979.3,345.5z"/>
	<path d="M1066.4,435.4c-2.1,1.9-4.1,3.8-6.1,5.6c-19.2-11.5-32.3-10.7-43.1,2.5c-8.5,10.4-8.1,25.9,0.9,36.2
		c10.1,11.7,24.8,12.2,42,1.3c2,1.8,4.1,3.6,6.3,5.5c-16.3,16-39.3,16.1-54.2,0.5c-14.3-14.8-13.8-38.7,1.1-53.1
		C1028.3,419.2,1051,419.8,1066.4,435.4z"/>
	<path d="M1003.7,383.9c0,8,0,15.3,0,23.1c-3.2,0-5.9,0-9,0c0-24.1,0-48.1,0-73.3c8.1,0.4,16,0,23.5,1.5c12.8,2.5,20.3,14,18.9,26.8
		c-1.4,12.7-11.4,21.7-24.5,22C1010.1,383.9,1007.5,383.9,1003.7,383.9z M1003.8,374.2c9.5,1.2,17.8,1,22.4-8.1
		c3-5.8,2.6-11.8-1.7-16.9c-5.6-6.6-12.9-6.6-20.7-5.2C1003.8,354.3,1003.8,364,1003.8,374.2z"/>
	<path d="M1097.9,406.9c-7.3,2.1-11.2,0-12.4-6.9c-0.4-2.5-2.1-4.9-2.6-7.4c-1.6-9.2-6.7-12.1-15.9-11.2c-5.7,0.5-9.4,1.4-10.6,7.6
		c-0.8,3.8-3.1,7.3-3.9,11.1c-1.5,6.8-5.1,9.2-12.3,6.8c7.5-20.7,15-41.5,22.5-62.3c0.4-1.2,0.7-2.6,1.4-3.7
		c1.6-2.4,3.5-4.5,5.3-6.8c1.5,2.2,3.5,4.3,4.4,6.8C1081.9,362.6,1089.8,384.5,1097.9,406.9z M1075.2,371.8c-2-5.5-3.8-10.4-6.3-17
		c-2.4,6.7-4.1,11.5-6.1,17C1067.3,371.8,1070.8,371.8,1075.2,371.8z"/>
	<path d="M1145.4,346.6c-2.2,1.1-4.5,2.1-7.2,3.4c-1.1-1.6-1.9-3.2-3.1-4.4c-3.7-3.7-7.8-4.5-11.7-0.4c-3.8,4.1-2.9,8.5,1.3,11.5
		c3.8,2.7,8.2,4.5,12.4,6.7c13.8,7.5,18.7,21.7,11.7,33.6c-4.9,8.3-14,12.7-23.4,11.1c-10.4-1.7-16.6-8.3-19-20.9
		c2.3-1,4.8-2.1,8-3.5c0.7,2.3,1.3,4.2,2,6c2,5.9,6.2,9.1,12.3,9.3c6.1,0.2,10.5-2.8,12.9-8.5c2.6-5.9,1-11.1-3.5-14.9
		c-3.5-3-7.9-5-12.1-7c-9.7-4.6-14.8-11.5-14.1-19.7c0.7-7.6,6.6-14.1,13.7-15.3C1135.1,332.1,1141,335.9,1145.4,346.6z"/>
	<path d="M184.3,459.9c0-9.7,0-17.8,0-26.2c11.6,0,23.1-0.5,34.4,0.2c6.6,0.4,11,4.7,10.9,12.1c-0.1,7.3-4.3,11.4-11,12
		C207.5,459,196.3,459.2,184.3,459.9z"/>
	<path d="M184.3,398.7c0-7.3,0-14.3,0-22.8c10.2,0.5,20,0.8,29.9,1.6c6,0.5,9.6,4.3,9.6,10.5c-0.1,6.2-4,10.1-9.8,10.5
		C204.4,399.2,194.7,398.7,184.3,398.7z"/>
</g>
</svg>
