<?xml version="1.0" encoding="utf-8"?>
<!-- Generator: Adobe Illustrator 26.0.1, SVG Export Plug-In . SVG Version: 6.00 Build 0)  -->
<svg version="1.1" id="Layer_1" xmlns="http://www.w3.org/2000/svg" xmlns:xlink="http://www.w3.org/1999/xlink" x="0px" y="0px"
	 viewBox="0 0 595.3 841.9" style="enable-background:new 0 0 595.3 841.9;" xml:space="preserve">
<g>
	<path d="M56,779.9c0-129.1,0-258.2,0-387.3c0.1-0.6,0.3-1.2,0.4-1.8c0.8-8.6,3.4-16.5,8.1-23.7c11.1-17,27-25.7,47.2-25.9
		c29.5-0.2,59.1-0.1,88.6-0.1c96.4,0,192.8,0,289.2,0c7,0,13.8,1,20.4,3.5c22.1,8.3,36.1,28.7,36.1,52.5c0,126,0,251.9,0,377.9
		c0,0.9,0,1.8,0,2.7c-0.3,8.1-2,15.8-5.8,22.9c-11,20.4-28.2,30.5-51.3,30.5c-125.2,0-250.4,0-375.6,0c-3.1,0-6.3-0.1-9.4-0.5
		c-22.4-2.8-41.2-19.7-46.3-41.7C57,785.9,56.5,782.9,56,779.9z M524,586.4c0-62.6,0-125.3,0-187.9c0-3.2-0.1-6.4-0.9-9.5
		c-3.8-15.8-16.7-25.7-33.3-25.7c-125.8,0-251.6,0-377.4,0c-2.8,0-5.7,0.3-8.5,0.9c-14.3,3.1-25.8,16.1-25.8,33.5
		c0.1,125.6,0.1,251.1,0.1,376.7c0,2.6,0.2,5.2,0.6,7.7C81,796.7,95.4,809,110.2,809c126.3,0,252.6,0,378.9,0c2.3,0,4.6-0.1,6.9-0.4
		c7.7-1.1,14.1-4.6,19.3-10.3c6.2-6.8,8.7-14.9,8.7-24.1C524,711.6,524,649,524,586.4z"/>
	<path d="M208,667c1.5-5.7,2.9-11.2,4.5-16.7c0.2-0.8,1.1-1.5,1.8-2c4.7-2.8,9.4-5.5,14.1-8.1c1.1-0.6,1.4-1.1,0.9-2.4
		c-4.9-12-9.7-24.1-14.6-36.2c-0.2-0.4-0.4-0.8-0.7-1.5c-3.5,4.8-6.9,9.3-10.3,13.9c-8.2,11-16.3,22-24.6,33
		c-1.1,1.5-1.4,2.8-0.9,4.6c1.4,5,2.7,10,4.1,15.2c-19,0-37.8,0-56.9,0c0.8-2.6,1.5-5.1,2.3-7.6c1.6-5.1,3.2-10.2,4.9-15.3
		c0.3-0.8,1-1.6,1.7-1.9c2.4-1.2,5-2.1,7.4-3.4c1.3-0.7,2.6-1.7,3.4-2.9c7.9-12.3,15.8-24.7,23.6-37.1c0.5-0.7,0.8-1.9,0.6-2.7
		c-3.3-11.4-6.7-22.9-10-34.3c-0.1-0.3-0.2-0.5-0.4-0.9c-6.6,3.2-13.1,6.5-20,9.9c0.7-2.2,1.3-4.1,2-6c9-25.9,18-51.9,27.1-77.8
		c0.6-1.7,0.5-2.9-0.6-4.5c-3.9-5.5-7.7-11-11.4-16.6c-0.3-0.5-0.6-1.5-0.4-1.9c2.3-3.6,4.6-7.1,7.1-10.9c6.6,5.3,13,10.5,19.7,15.9
		c4-6.5,7.9-12.9,12-19.6c-15.6,0-30.8,0-46.2,0c0,1.6,0,3.2,0,4.8c0.1,1.5,0.2,3.1,0.3,4.7c-4.4,0-8.7,0-13.2,0
		c0.6-6.6,1.1-13.1,1.7-19.8c18.7,0,37.4,0,56.4,0c-0.8-2.6-1.4-5-2.2-7.4c-0.1-0.4-1.2-0.9-1.7-0.8c-8.5,1.2-16.9,2.6-25.3,3.9
		c-0.9,0.1-1.9,0.2-3,0.3c-2.7-9-5.3-17.9-8.1-27c12.4-0.3,24.6-0.6,36.8-0.9c0.6-2,1.3-3.9,1.8-5.8c0.3-1.1,0.8-1.6,2.1-1.6
		c14.8-0.2,29.5-0.6,44.3-0.6c4.5,0,8.5-1.6,12.6-2.9c6.9-2.1,13.8-4.3,20.8-6.4c0.6-0.2,1.1-0.3,2-0.5c-3.5,11.1-6.9,22-10.5,33.4
		c4.2-3.4,7.9-6.5,11.8-9.7c0.2,2.7,0.3,5,0.4,7.4c0.5,12.4,0.9,24.7,1.4,37.1c0.5,11.8,1,23.7,1.4,35.5c0.1,2.2,0.2,4.5,0.2,6.7
		c0,1.3,0.3,2,1.7,1.8c0.3,0,0.7,0,1,0c51.1,0,102.3,0,153.4,0c0.7,0,1.5,0,2.4,0c0-6.6,0-13.1,0-19.7c-45.2,0-90.3,0-135.6,0
		c-0.2-1.9-0.4-3.6-0.6-5.3c-1.2-11.6-2.6-23.2-3.3-34.9c-0.3-5.4,0.7-10.9,1.3-16.4c0.7-7,1.5-14,2.3-21.1c0.2-1.5,0.3-3,0.5-4.6
		c54.1,0,108.1,0,162.2,0c0,14.3,0,28.6,0,43.4c-2.5-3-4.8-5.6-7-8.3c-3.8-4.5-7.5-9.1-11.4-13.6c-0.5-0.6-1.6-1.2-2.3-1.2
		c-40.7-0.1-81.4,0-122.1,0c-0.3,0-0.5,0-0.8,0.1c-2.8,13.6-2.5,27.1,0,40.8c0.7,0,1.5,0,2.3,0c39.8,0,79.5,0,119.3,0
		c1.9,0,3.3,0.4,4.7,1.7c5.3,4.7,10.7,9.3,16.1,13.8c1.1,0.9,1.4,1.8,1.4,3.1c0,22.1-0.2,44.3,0.1,66.4c0.1,4.6,1.4,9.3,2.5,13.9
		c5.3,21.8,10.7,43.5,16,65.2c0.2,0.8,0.1,1.7-0.2,2.5c-4.2,12.7-8.4,25.5-12.6,38.2c-0.3,1-0.7,1.5-2,1.5c-19.1,0-38.3,0-57.4,0
		c-0.1,0-0.3,0-0.7-0.1c0.8-2,1.5-4,2.2-6c1.6-4,3.2-8,4.7-12.1c0.5-1.5,1.2-2.2,2.7-2.5c5.2-1.1,10.5-2.3,15.7-3.3
		c1.4-0.3,2.3-0.9,2.9-2.3c2-4.9,4.3-9.8,6.3-14.7c0.2-0.6,0.2-1.7-0.2-2.1c-7.3-8.2-14.8-16.4-22.4-24.7c-1.7,2.3-3.4,4.5-4.9,6.8
		c-9.1,12.7-18.1,25.5-27.2,38.1c-1.5,2.1-1.5,4.4-1.9,6.7c-0.8,5.4-1.4,10.8-2.1,16.3c-20.5,0-40.9,0-61.5,0c1.1-4,2.1-8,3.2-12
		c0.6-2.2,1.1-4.5,1.9-6.6c0.3-0.8,1.1-1.7,1.9-1.9c5-1.5,10-2.9,15-4.4c0.7-0.2,1.6-0.8,1.9-1.5c13.8-26.7,27.6-53.4,41.3-80.1
		c0.1-0.2,0.2-0.4,0.4-0.8c-0.8,0.3-1.4,0.5-1.9,0.8c-19.3,9.5-38.7,19.1-58,28.6c-1,0.5-2.2,0.8-3.3,0.8c-16.3,0-32.5,0-48.8,0
		c-1.3,0-2.1,0.3-2.8,1.5c-5,9.1-10,18.2-15,27.2c-0.6,1.1-0.8,1.9,0,3.1c4.9,7.7,9.6,15.5,14.6,23.1c1.4,2.1,1.4,4.1,0.9,6.3
		c-1,4.9-1.9,9.8-2.9,14.7c-0.1,0.5-1,1.3-1.5,1.3c-20.4,0-40.9,0-61.3,0C208.9,667.1,208.6,667,208,667z"/>
	<path d="M123.6,690.1c0.9,0,1.8,0,2.6,0c7.3,0.1,14.7-0.1,22,0.5c8.8,0.7,14.6,6.5,16.2,15.4c0.5,2.9,0.8,5.9,0.8,8.9
		c0.1,15,0.1,29.9,0,44.9c0,3.1-0.5,6.2-1.3,9.2c-2.2,8.3-7.3,12.9-16,13.5c-8.1,0.5-16.2,0.1-24.4,0.1
		C123.6,751.8,123.6,721,123.6,690.1z M137.3,769.6c2.4,0,4.8,0.1,7.2,0c4.2-0.3,6.3-2.3,6.7-6.5c0.3-3.2,0.4-6.5,0.4-9.8
		c0-12.7,0.1-25.5,0-38.2c0-4.1-0.7-8.1-4.9-10.2c-2.9-1.5-6.2-1.3-9.4-1.2C137.3,725.7,137.3,747.5,137.3,769.6z"/>
	<path d="M279,728c4.9,0,9.5,0,14.3,0c0-12.6,0-25.1,0-37.8c4.6,0,8.9,0,13.4,0c0,30.8,0,61.7,0,92.7c-4.3,0-8.6,0-13.2,0
		c0-13.7,0-27.5,0-41.4c-4.8,0-9.4,0-14.4,0c0,13.8,0,27.5,0,41.4c-4.6,0-8.9,0-13.4,0c0-30.9,0-61.7,0-92.7c4.3,0,8.7,0,13.3,0
		C279,702.8,279,715.2,279,728z"/>
	<path d="M329.9,782.9c-4.4,0-8.7,0-13.4,0c4.9-31,9.7-61.8,14.6-92.7c5.9,0,11.8,0,18,0c4.9,30.8,9.7,61.7,14.6,92.7
		c-4.7,0-9.2,0-13.9,0c-0.7-5.1-1.5-10.3-2.1-15.4c-0.5-4.8-0.4-4.8-5.3-4.8c-2.6,0-5.2,0.1-7.8,0c-1.4-0.1-1.9,0.5-2.1,1.8
		c-0.7,5-1.5,10.1-2.2,15.1C330.3,780.6,330.1,781.7,329.9,782.9z M340.5,710.8c-0.4,0-0.7,0-1.1,0.1c-1.7,12.9-3.3,25.8-5,38.8
		c3.8,0,7.2,0,10.8,0C343.6,736.6,342.1,723.7,340.5,710.8z"/>
	<path d="M446.8,690.2c12,0,23.8,0,35.9,0c0,4.3,0,8.6,0,13.2c-1,0-1.9,0-2.9,0c-5.7,0-11.4,0.1-17.1,0c-1.6,0-2.3,0.4-2.2,2.1
		c0.1,6.8,0.1,13.6,0,20.4c0,1.6,0.4,2.2,2.1,2.1c4.5-0.1,9,0,13.6,0c0,4.4,0,8.6,0,13.2c-1,0-2,0-3,0c-3.7,0-7.4,0-11,0
		c-1.2,0-1.7,0.4-1.7,1.6c0,8.3,0,16.6,0,24.9c0,1.4,0.5,1.7,1.8,1.7c6.7,0,13.5,0,20.4,0c0,4.5,0,9,0,13.6c-11.9,0-23.8,0-35.9,0
		C446.8,752,446.8,721.1,446.8,690.2z"/>
	<path d="M189.5,741.1c0,9.6,0,18.8,0,28.2c7.3,0,14.5,0,21.9,0c0,4.6,0,9.1,0,13.7c-11.8,0-23.6,0-35.5,0c0-30.9,0-61.7,0-92.7
		c11.8,0,23.6,0,35.6,0c0,4.3,0,8.6,0,13.1c-7.3,0-14.5,0-21.9,0c0,1-0.1,1.7-0.1,2.4c0,5.5,0,11,0,16.5c0,1.8-0.5,4.3,0.5,5.2
		c1,0.9,3.5,0.4,5.3,0.4c3.3,0,6.6,0,10.1,0c0,4.4,0,8.7,0,13.2C200.1,741.1,194.9,741.1,189.5,741.1z"/>
	<path d="M411.4,768.9c8.3,0,16.5,0,24.9,0c0,4.8,0,9.3,0,14c-13.1,0-26.2,0-39.5,0c0-1.5,0.1-3.1,0-4.6c-0.7-6.8,1.2-13,3.7-19.3
		c7.1-17.7,13.8-35.6,20.7-53.4c0.2-0.4,0.3-0.9,0.5-1.5c-7.6,0-15.1,0-22.7,0c0-4.7,0-9.2,0-13.9c12.3,0,24.7,0,37.4,0
		c0,0.7,0.1,1.4,0.2,2.1c1.1,8.3-1.7,15.8-4.7,23.4c-6.9,17.4-13.6,34.9-20.3,52.4C411.4,768.2,411.4,768.4,411.4,768.9z"/>
	<path d="M222.8,690.2c4.5,0,8.7,0,13.2,0c0,26.5,0,52.8,0,79.5c7.3,0,14.3,0,21.6,0c0,4.6,0,8.9,0,13.3c-11.6,0-23.1,0-34.7,0
		C222.8,752,222.8,721.1,222.8,690.2z"/>
	<path d="M372,690.2c4.5,0,9,0,13.6,0c0,30.9,0,61.7,0,92.7c-4.5,0-9,0-13.6,0C372,752.1,372,721.2,372,690.2z"/>
</g>
</svg>
