<?xml version="1.0" encoding="utf-8"?>
<!-- Generator: Adobe Illustrator 26.0.1, SVG Export Plug-In . SVG Version: 6.00 Build 0)  -->
<svg version="1.1" id="Layer_1" xmlns="http://www.w3.org/2000/svg" xmlns:xlink="http://www.w3.org/1999/xlink" x="0px" y="0px"
	 viewBox="0 0 595.3 841.9" style="enable-background:new 0 0 595.3 841.9;" xml:space="preserve">
<style type="text/css">
	.st0{fill:#FFFFFF;}
</style>
<g>
	<path d="M339.4,591.7c3.2,2,5.1,3.3,7.1,4.4c29,16.1,77.9,3.8,86-38.1c4.9-25.3-9.7-50.3-35.1-60.1c-12.1-4.7-24.8-5.1-37.4-6.2
		c-5.6-0.5-11.3-0.5-16.8-1.3c-1.4-0.2-3.5-2.5-3.6-4c-0.4-6-0.1-12-0.2-18c-0.1-3.7,1.7-4.4,5-4.6c7.6-0.4,15.2-0.8,22.7-2.1
		c24-4.3,37.4-18.2,40.8-42.5c0.9-6.6,0.6-13.4,1.6-20c0.6-3.6,2-8.1,4.6-10.1c3.8-2.8,8,0.4,11.2,3c13.2,10.8,16.2,25.3,14.3,41.3
		c-1.6,13.1-5.6,25.5-12.4,36.9c-2.8,4.6,0.2,6.1,3.9,7.3c15.2,5.2,28.3,13.6,39.7,25.1c25.7,25.9,30.1,57.7,15.7,89.8
		c-15.2,33.9-43.6,51.9-78.5,60.8c-20.9,5.3-41.7,4.3-62.1-3.1c-4.8-1.7-6.8-4.1-6.7-9.5c0.4-14,0.1-28,0.1-42
		C339.4,596.9,339.4,595.1,339.4,591.7z"/>
	<path d="M233.4,557.5c0.8-5.6,2.3-11.2,2.2-16.8c-0.2-26.5,2.6-52.6,8.9-78.2c6.5-26.5,16.3-51.6,33.5-73.2
		c19.7-24.7,45.1-38.5,76.8-41.1c13.8-1.1,26.8,0.4,38.5,8.1c4.2,2.7,7.6,6.2,7.5,11.9c-0.2,6.5-4.2,10.9-11.7,12.1
		c-16.6,2.6-32.5,7.3-47.1,16.1c-17.6,10.6-30.8,25.2-40.7,42.9c-12.4,22-18.9,46-22.6,70.7c-3,19.9-4.6,40-8,59.8
		c-1.6,9.1-4.9,18.3-9.4,26.4c-7,12.5-20.5,14.8-33,7.6c-11.1-6.3-17.7-16.4-21.9-27.7c-6-15.9-10.7-32.4-15.9-48.6
		c-0.3-1-0.5-2.1-0.6-3.2c-0.3-3.9,0.6-7.5,4.5-9.1c4-1.6,6.4,1.4,8.5,4.2c7.7,10.8,15.2,21.7,22.9,32.5c1.5,2.1,3.4,4,5.1,6
		C231.7,557.7,232.6,557.6,233.4,557.5z"/>
	<path d="M90.4,495.6c0.2-38.9,11.4-66.5,27.7-92.5c6.7-10.6,13.4-21.2,19.8-31.9c1.8-3.1,2.8-6.7,4-10.1c2.1-6.3-0.4-11.2-4.9-15.6
		c-2.1-2-4.2-4.1-5.6-6.5c-2.9-4.9-1.6-9.5,3.2-12.7c5.9-3.8,12.4-5.5,19.2-4.2c12,2.3,22.2,8.2,29.1,18.5c6.8,10,6.1,21.3,3.7,32.6
		c-3.3,14.9-10.3,28.2-18,41.2c-8.3,14-17.6,27.8-23.8,42.7c-11.9,28.5-9.2,57.2,3.3,85.1c12.5,27.8,25.4,55.5,37.7,83.4
		c2.9,6.6,4.8,13.7,6.3,20.8c0.6,2.6-0.1,7-1.9,8.3c-1.6,1.2-6.3,0.1-8.2-1.6c-9.1-8-18.3-16.1-26.3-25.2
		c-18.7-21.5-34.4-45-46.9-70.6C98.1,535.4,90.2,512.7,90.4,495.6z"/>
	<path d="M551,764.6c0-12.4,0-23.3,0-34.3c0-3.3-0.6-6.6,4.6-6.6c4.8,0,5.8,2.3,5.7,6.4c-0.1,15.5,0.1,30.9-0.2,46.4
		c0,2.1-1.9,6-2.7,5.9c-2.9-0.1-6.9-0.8-8.5-2.8c-5.5-6.9-10.2-14.5-15.3-21.9c-3.6-5.2-7.1-10.5-10.6-15.5c0,12,0,24.1,0,36.1
		c0,4.1-2.6,4.5-5.8,4.6c-3.8,0.1-4.5-1.9-4.5-5.1c0.1-16,0-32,0.1-48c0-2,1-5.1,2.4-5.6c3-1.1,6.2-0.9,8.5,2.6
		c7.6,11.3,15.4,22.5,23.2,33.7C548.8,761.6,549.5,762.5,551,764.6z"/>
	<path d="M495.4,753.2c0.2,16.8-11.4,29.2-26.5,30.2c-22.3,1.4-32.1-14.5-32.2-30c-0.2-17.2,12.2-30.6,28.8-30.5
		C482.1,723.1,495.1,733.3,495.4,753.2z M447.8,753.1c-0.1,12.7,6.7,20.5,18.1,20.7c10.6,0.2,18.6-8.3,18.6-19.8
		c0.1-12.6-7.3-20.9-18.5-21C455,733,447.8,740.9,447.8,753.1z"/>
	<path d="M137.9,723.8c12.6,0,24.2,2.2,31.8,13.8c11.8,18.1,0,42.7-21.5,44.5c-5.4,0.5-10.8,0.6-16.3,0.9c-3.2,0.2-4.5-1.2-4.5-4.5
		c0.1-16.7,0.1-33.4,0-50.1c0-3.3,1.2-4.7,4.5-4.6C133.9,723.9,135.9,723.8,137.9,723.8z M137.9,753.3c0,4.9,0.1,9.8,0,14.7
		c-0.1,3.4,0.9,4.8,4.6,4.9c12,0.3,21-7.7,21.1-19.1c0.1-12.2-8.2-19.9-20.8-19.8c-4,0-5,1.6-4.8,5.2
		C138.1,743.9,137.9,748.6,137.9,753.3z"/>
	<path d="M266.6,756.4c5.7,8.6,11,16.7,16.4,24.9c-6.3,3.1-10,2.3-13.4-2.6c-4.8-7-9.5-14-14.9-22.1c0,8.1-0.1,15,0,21.9
		c0.1,3.3-1.3,4.5-4.5,4.6c-3.3,0-5-0.9-5-4.6c0.1-16.7,0.1-33.5,0-50.2c0-2.9,1-4.5,4.1-4.4c6.3,0.3,12.7,0.2,19,1.3
		c7.5,1.3,11.5,7.3,11.5,15.6C279.9,749.5,276,754.2,266.6,756.4z M254.8,740.8c0.1,4.1-1.4,8.6,5.5,8.1c6.5-0.5,10.2-3.1,10.1-8.1
		s-3.9-7.4-10.5-7.7C252.7,732.5,255.3,737.6,254.8,740.8z"/>
	<path d="M225.8,734.1c-6.2,0-12.2,0.2-18.1-0.1c-3.9-0.2-5.5,1-5.4,5.2c0.1,8.6-0.1,8.6,8.6,8.6c2.2,0,4.4,0.1,6.5,0
		c4-0.3,5.9,1,5.8,5.5c0,4.6-2.5,4.9-5.9,4.8c-1.8-0.1-3.6,0-5.5,0c-9.7,0-11.5,2.2-9.3,11.8c0.3,1.2,2.7,2.6,4.2,2.7
		c6,0.4,12,0.3,18,0.5c0.3,0,0.6,0.4,0.9,0.6c0.4,9,0,9.4-8.6,9.4c-6.7,0-13.5-0.1-20.2,0c-3.8,0.1-5.1-1.5-5.1-5.2
		c0.1-16.2,0.2-32.4,0-48.5c-0.1-4.5,1.8-5.7,5.9-5.5c6.4,0.2,12.7,0,19.1,0C225.6,723.8,225.6,723.8,225.8,734.1z"/>
	<path d="M107.7,734.1c-5.9,0-11.8,0.3-17.7-0.1c-5.6-0.4-5.5,2.8-5.5,6.7c0,4.1-0.3,7.9,5.7,7.1c3.2-0.4,6.5,0.1,9.8-0.1
		c4-0.2,5.4,1.4,5.4,5.4c0,3.9-1.6,5.2-5.2,4.9c-2.2-0.2-4.4,0-6.5,0c-8.8,0-11.6,3.6-8.8,12.3c0.3,1.1,2.6,2.2,4.1,2.3
		c6,0.3,12,0.3,18,0.4c0.3,0,0.6,0.3,0.9,0.5c0.7,8.7,0,9.5-8.4,9.5c-6.7,0-13.5-0.1-20.2,0c-3.7,0.1-5.2-1.3-5.2-5.1
		c0.1-16.4,0.1-32.7,0-49.1c0-3.8,1.5-5.2,5.2-5.1c6.7,0.1,13.5,0,20.2,0C107.8,723.8,108.3,724.4,107.7,734.1z"/>
	<path d="M347.5,782.1c-8.8,2.1-9.9,1.6-12.4-5.8c-3.7-10.5-3.7-10.2-15-10.6c-5.3-0.2-8.2,1.5-9.2,6.6c-0.2,1.2-0.8,2.4-1.2,3.6
		c-2.8,8-3.3,8.3-12.3,6.4c0.2-1.1,0.1-2.4,0.5-3.5c6.1-16.7,12.3-33.4,18.3-50.2c1.1-3.1,2.5-4.9,6.1-4.9s5.1,1.6,6.2,4.7
		c5.7,16.1,11.6,32.1,17.4,48.1C346.5,778.2,346.9,780,347.5,782.1z M328.4,756.1c-2.1-6.1-3.9-11.4-6.3-18.1
		c-2.3,7.1-4,12.4-5.8,18.1C320.7,756.1,324,756.1,328.4,756.1z"/>
	<path d="M57.1,734.1c-6.3,0-12.6,0.3-18.9-0.1c-5.6-0.4-5.1,3.1-5,6.6s-1.1,7.7,5,7.2c4-0.3,8,0,12,0c3.6,0,4.6,2,4.6,5.2
		c0,3.3-1,5.2-4.7,5c-4.2-0.2-8.4,0.1-12.6-0.1c-3.3-0.1-4.6,1.1-4.5,4.4c0.2,5.3-0.1,10.6,0.1,15.8c0.1,3.6-1.5,4.8-4.9,4.8
		c-3.2,0-5.7-0.3-5.7-4.6c0.1-16.7,0.1-33.5,0-50.2c0-3.4,1.6-4.5,4.7-4.4c6.9,0.1,13.8,0,20.7,0C57.2,723.8,57.4,724.1,57.1,734.1z
		"/>
	<path d="M354.2,734.1c0.2-10.2,0.2-10.2,9-10.3c6.4,0,12.7,0,19.1,0c8.1,0,8.9,0.9,8.2,9.8c-1.5,0.2-3,0.5-4.6,0.5
		c-8.2,0-8-1-8,8.5c0,11.3-0.1,22.6,0,33.8c0,3.9-0.4,6.7-5.5,6.7c-5,0-4.9-2.9-4.9-6.4c0.1-12.4-0.1-24.8,0.1-37.1
		c0.1-4.3-1.2-6-5.6-5.6C359.6,734.3,357.1,734.1,354.2,734.1z"/>
	<path d="M417.4,753.4c0,8.2-0.1,16.4,0.1,24.5c0.1,3.8-1.3,5.2-5.1,5.1c-3.6-0.1-5.3-1.4-5.3-5.1c0.1-16.3,0.1-32.7,0-49
		c0-3.8,1.7-5.1,5.3-5.1c3.8-0.1,5.1,1.4,5,5.1C417.3,737.1,417.4,745.3,417.4,753.4z"/>
	<path d="M41,824.4c-0.9,2.5-1.5,5.2-2.7,7.5c-0.7,1.4-2.6,3.3-3.6,3.2c-1.5-0.3-3.4-2-3.9-3.5c-2.8-8.2-5.2-16.6-7.5-24.9
		c-0.3-1.2,1-2.8,1.5-4.2c1.5,0.9,4,1.4,4.5,2.7c2.1,5.8,3.6,11.7,5.7,19.2c2.2-6.1,4-11,5.7-15.9c0.5,0,0.9,0,1.3-0.1
		c1.8,4.9,3.6,9.7,5.9,15.7c2-6.7,3.6-12.2,5.2-17.7c0.8-2.7,2.1-5.1,5.2-3.7c0.9,0.4,1.4,3.6,0.9,5.2c-2.1,7.7-4.3,15.3-6.9,22.9
		c-0.6,1.7-2.5,3-3.8,4.5c-1.4-1.6-3.1-3-4.2-4.8c-1.1-1.8-1.5-4-2.3-6C41.8,824.4,41.4,824.4,41,824.4z"/>
	<path d="M168.2,835.6c-9.7,0-16.6-7-16.7-16.9c-0.1-9.5,6.9-16.9,16.1-17.1c9.7-0.2,17.1,7.4,17,17.3
		C184.5,828.5,177.6,835.6,168.2,835.6z M177.8,818.7c0-6.8-3.5-10.5-9.7-10.6c-6.1,0-10.5,4.7-10.3,10.9c0.2,6,4.7,10.5,10.4,10.4
		C173.9,829.5,177.8,825,177.8,818.7z"/>
	<path d="M214.8,823.9c0-7.1-0.2-12.4,0.1-17.6c0.1-1.3,2-2.6,3.1-3.8c0.9,1.2,2.7,2.5,2.7,3.7c0.2,8.4,0.2,16.7,0,25.1
		c0,1.3-1.5,3.8-1.9,3.7c-1.8-0.3-4-1-5-2.3c-4-5.4-7.7-11-11.5-16.6c-0.4-0.6-1-1.1-2.3-2.5c0,6.2,0.2,11.5-0.1,16.7
		c-0.1,1.7-1.5,4.5-2.7,4.7c-3.5,0.6-3.2-2.5-3.2-4.8c0-7.5-0.2-14.9,0.1-22.4c0.1-1.8,1.5-3.6,2.3-5.4c1.9,1.1,4.4,1.7,5.6,3.3
		C206.2,811.1,210,816.9,214.8,823.9z"/>
	<path d="M347.1,822.1c2.1,3.3,4.9,7.6,8.2,12.6c-10.1,1.9-9.7-7.7-15.3-10.6c-0.1,2.5,0.1,5.1-0.5,7.5c-0.3,1.4-2,2.4-3.1,3.6
		c-1.1-1.1-3.2-2.3-3.2-3.4c-0.3-8.7-0.2-17.4-0.1-26.1c0-0.9,0.8-2.7,1.3-2.7c4.8,0.1,10-0.6,14.2,1.1c2.3,0.9,4.3,5.9,4.1,8.9
		C352.4,815.9,349.3,818.7,347.1,822.1z M349,811.9c-2.9-1.8-4.4-3.5-5.7-3.4c-1.3,0.1-3.2,2.1-3.2,3.3s1.9,3.2,3.1,3.4
		C344.5,815.3,346,813.7,349,811.9z"/>
	<path d="M321,817.3c1.5,3.1,3.6,6.6,1.8,11.2c-1.7,4.5-5.3,6.1-9.8,6.3c-0.9,0-1.7,0.5-2.6,0.6c-7.3,0.8-8.2,0.1-8.2-7.2
		c0-7.1,0.1-14.1,0-21.2c-0.1-3.6,1.4-5,4.8-4.7c1.6,0.1,3.4-0.4,4.9,0.1c3.2,1.2,7.4,2.2,8.9,4.7C322.2,809.6,321,813.8,321,817.3z
		 M313,819.6c-0.8,0.1-1.6,0.2-2.4,0.2c-0.8,1.6-2.1,3.2-2.4,5c-0.4,2.3-0.2,5.4,3.2,4.5c2.2-0.5,3.9-2.7,5.8-4.2
		C315.8,823.3,314.4,821.4,313,819.6z M312.2,806.3c-2,2.6-3.7,3.9-3.9,5.4c-0.2,1,2.1,3.6,2.5,3.4c1.9-0.7,3.5-2.1,5.3-3.3
		C315.1,810.4,314.1,809,312.2,806.3z"/>
	<path d="M531.5,829.5c1.3,4.6-0.3,6-4.1,6c-16.7-0.1-14.2,1.6-14.4-13.4c-0.1-5.1,0.1-10.1,0-15.2c0-3.1,1.2-4.7,4.5-4.6
		c3.3,0.1,6.5,0.2,9.8,0c3.9-0.2,5.4,1.4,4.4,6.2c-2.5,0-5.4-0.4-8.1,0.2c-1.4,0.3-2.5,2.2-3.7,3.3c1.2,1.2,2.2,2.7,3.7,3.4
		c2.4,1.1,7.2-1.8,7.1,3.2c-0.1,4.9-4.8,1.9-7.2,3.1c-1.5,0.8-3.4,2.7-3.3,4c0,1.3,2.1,3.3,3.6,3.7
		C526.1,830,528.7,829.5,531.5,829.5z"/>
	<path d="M389,815.1c0,2.5,0.1,5.1,0,7.6c-0.3,7.9-5.4,12.9-13.1,12.9c-7.6-0.1-12.6-5.2-12.7-13.2c0-4.7-0.1-9.4,0.1-14.2
		c0.1-2.2-1.3-5.7,2.8-5.8c4.5,0,3,3.7,3.2,6.1c0.2,4.3,0.1,8.7,0.1,13.1c0,4.4,1.6,7.5,6.4,7.8c4.3,0.3,6.9-2.4,7.1-7.7
		c0.2-5.1-0.2-10.2,0.2-15.2c0.1-1.4,1.9-2.7,2.9-4.1c1,1.3,2.7,2.6,3,4C389.4,809.3,389,812.2,389,815.1z"/>
	<path d="M93.2,834.2c-4.2,2.2-6.4,1-7.5-2.8c-1-3.2-2-5.8-6.5-5.8c-4.4,0-6.1,1.9-7.2,5.7c-0.4,1.4-1.6,2.8-2.8,3.7
		c-0.7,0.5-2.3,0.4-3-0.2c-0.6-0.5-1-2-0.7-2.8c3.3-9.2,6.5-18.5,10.1-27.6c1.3-3.2,5.4-3,6.6,0.2C86.1,814.4,89.5,824.3,93.2,834.2
		z M79.4,812.8c-0.4,0-0.8,0-1.2,0c-0.6,2.1-1.2,4.2-2,6.9c2.2-0.2,3.5-0.3,5.3-0.5C80.7,816.8,80,814.8,79.4,812.8z"/>
	<path d="M431,818.8c0-3.4,0-6.9,0-10.3c0-0.5-0.2-1.2,0.1-1.6c1-1.5,2.3-4.3,3.3-4.3c5.2,0.1,10.3,1,15.5,1.6
		c-0.9,1.4-1.5,3.5-2.7,3.9c-1.9,0.7-4.4-0.2-6.4,0.4c-1.4,0.4-2.4,2.2-3.6,3.4c1.2,1.2,2.2,2.7,3.7,3.3c1.2,0.6,3-0.2,4.3,0.3
		c1.4,0.5,2.6,1.8,3.8,2.7c-1.3,1-2.6,2.4-4.1,3.1c-1,0.5-2.5,0.2-3.8,0.1c-2.7-0.1-4,0.8-4,3.7s0.9,4.5,4,4.4c2-0.1,4-0.2,6,0.1
		c1.1,0.2,2.9,1.8,2.8,2.2c-0.4,1.3-1.6,3.2-2.5,3.3c-4.5,0.3-9.1,0.4-13.6,0c-1-0.1-2.5-2.4-2.6-3.8C430.8,827.1,431,823,431,818.8
		L431,818.8z"/>
	<path d="M260.5,802.4c2.4,0,4.8-0.3,7,0.1c0.9,0.2,2.2,1.9,2.2,3c0,0.9-1.4,2.3-2.4,2.6c-1.9,0.4-4.1-0.2-5.9,0.3
		c-1.6,0.5-3.7,1.8-4.2,3.3c-0.9,2.8,1.3,3.3,3.8,3.7c2.7,0.4,7.7-2.3,7.6,3.1c-0.1,4.7-4.7,2.6-7.4,2.7c-2.9,0.2-4.2,1-4.2,4.2
		c0,3.1,1.3,4.2,4.3,4c1.8-0.1,3.7-0.2,5.4,0.1c1.2,0.2,2.2,1.3,3.2,2c-0.9,1.2-1.6,3.4-2.6,3.4c-4.7,0.4-9.4,0.3-14.1,0
		c-0.8,0-2.2-2-2.2-3.1c-0.2-8.7-0.2-17.4,0.1-26.1c0-1.2,2.1-2.9,3.5-3.4c1.8-0.6,3.9-0.1,5.9-0.1
		C260.5,802.4,260.5,802.4,260.5,802.4z"/>
	<path d="M421.9,803.1c-2.2,4-3.9,7.6-6,10.9c-1.9,3-1.9,5.5,0,8.5c2.3,3.6,4.1,7.5,6.5,12c-9.7,2.6-8.2-7-12.4-9.6
		c-4,3-3,12.1-12.5,9.7c2.1-4,3.5-7.8,5.8-10.9c3-4.1,2.5-7.5-0.1-11.4c-1.9-2.8-3.3-5.9-5-9c5.1-1.5,5.1-1.5,11.7,8.2
		C417.1,802.3,417.1,802.3,421.9,803.1z"/>
	<path d="M560.2,805.9c-1.3,2.4-2.5,3.9-5.8,2.4c-1.5-0.7-3.8,0.4-5.7,0.6c1,1.7,1.6,3.8,3,5c2.1,1.9,4.9,3.1,7.2,4.9
		c3.7,3,3.7,7.6,2.1,11c-1.2,2.6-5.1,5.3-7.8,5.4c-3.6,0.2-7.3-2.1-10.8-3.6c-0.3-0.1-0.3-2.6,0.3-3.2c0.8-0.8,2.8-1.4,3.6-0.9
		c3.1,1.8,6.8,4.2,8.9,0c2.3-4.6-3-5.5-5.6-7.8s-5.6-4.8-6.8-7.8c-1.4-3.4-0.1-7.2,3.8-9.2C550.6,800.6,556.3,801.9,560.2,805.9z"/>
	<path d="M146.8,830.1c-1.9,2.4-2.9,4.8-4.1,4.9c-4.1,0.5-8.3,0.5-12.4,0c-1-0.1-2.4-2.6-2.5-4.1c-0.2-8.2-0.3-16.3,0-24.5
		c0-1.4,1.9-2.7,3-4.1c1.2,1.4,3.4,2.7,3.5,4.2c0.4,5.4,0.5,10.9,0.1,16.3c-0.4,5.1,1.2,7.5,6.6,6.8
		C142.2,829.4,143.5,829.8,146.8,830.1z"/>
	<path d="M486.9,818.4c0-4.2-0.2-8.4,0.1-12.5c0.1-1.3,1.9-2.4,3-3.6c1.2,1.2,3.3,2.4,3.4,3.6c0.4,6,0.4,12,0.2,18
		c-0.2,4.1,1.1,6,5.5,5.7c1.7-0.1,3.6,1.6,5.4,2.4c-2,1.1-3.8,3.1-5.9,3.2c-11.8,0.7-11.9,0.5-11.9-11.5
		C486.8,822,486.8,820.2,486.9,818.4C486.8,818.4,486.8,818.4,486.9,818.4z"/>
	<path d="M119.8,831.8c-1.5,1.2-3,2.4-4.6,3.6c-0.1,0.1-0.3,0-0.5,0c-13.1,1.3-13.4,1.1-13.4-12.1c0-5.6-0.2-11.3,0.2-16.9
		c0.1-1.4,1.9-2.8,2.9-4.2c1,1.3,2.8,2.6,2.9,4c0.3,5.4,0.4,10.9,0.1,16.3c-0.3,5,1.1,7.6,6.6,6.9c1.5-0.2,3.2,0.2,4.8,0.3
		C119,830.5,119.4,831.1,119.8,831.8z"/>
	<path d="M479.5,830.1c-1.7,2.3-2.6,4.8-3.8,4.9c-4.3,0.5-8.7,0.4-13,0c-0.8-0.1-2.1-2.4-2.1-3.7c-0.2-8.4-0.2-16.7,0-25.1
		c0-1.3,2-2.6,3.1-3.9c0.9,1.4,2.6,2.8,2.7,4.2c0.3,5.2,0.5,10.6,0.1,15.8c-0.4,5.3,1,8,6.8,7.2
		C474.8,829.3,476.4,829.8,479.5,830.1z"/>
	<path d="M232.5,818.6c0-4.2-0.3-8.4,0.2-12.5c0.1-1.4,2.1-2.5,3.3-3.8c1.1,1.3,3.1,2.6,3.1,4c0.3,8.3,0.3,16.7,0,25
		c0,1.4-2.1,2.6-3.3,4c-1.1-1.4-3-2.7-3.1-4.1C232.2,827,232.5,822.8,232.5,818.6z"/>
	<path d="M98,706.9c-4.2,10.7-6.6,12.6-13.8,11.1C84.4,707.3,87.4,704.8,98,706.9z"/>
	<path d="M201.9,718.1c2.2-13,4-13.2,13.8-11C212.6,716.4,209.1,719.3,201.9,718.1z"/>
	<path d="M285,827.3c-2.4-1.8-5.2-2.8-5.4-4.2c-0.6-4,3-3.2,5.4-3.2c2.3,0,5.9-1,5.5,3C290.3,824.4,287.3,825.6,285,827.3z"/>
	<path class="st0" d="M313,819.6c1.4,1.9,2.9,3.7,4.3,5.6c-1.9,1.4-3.7,3.6-5.8,4.2c-3.5,0.8-3.6-2.2-3.2-4.5c0.3-1.7,1.6-3.3,2.4-5
		C311.4,819.7,312.2,819.6,313,819.6z"/>
</g>
</svg>
