<?xml version="1.0" encoding="utf-8"?>
<!-- Generator: Adobe Illustrator 26.0.1, SVG Export Plug-In . SVG Version: 6.00 Build 0)  -->
<svg version="1.1" id="Layer_1" xmlns="http://www.w3.org/2000/svg" xmlns:xlink="http://www.w3.org/1999/xlink" x="0px" y="0px"
	 viewBox="0 0 1366 768" style="enable-background:new 0 0 1366 768;" xml:space="preserve">
<style type="text/css">
	.st0{clip-path:url(#SVGID_00000120551398738388669940000008025806565239627139_);}
</style>
<g>
	<g>
		<g>
			<defs>
				<path id="SVGID_1_" d="M859.7,193.2c-0.3,4.6-0.6,8-1,11.6c-2,20.3-3.9,40.6-6.1,60.8c-0.2,2.3-2,4.9-3.8,6.7
					c-14.3,14.9-31.4,25.8-49.9,34.6c-24.7,11.8-43.3,30.7-61.5,50.2c-4.7,5-8.4,11.1-13.5,15.5c-4.7,4.1-10.7,7-16.3,9.8
					c-5.6,2.8-9.9-0.1-13.1-4.7c-3.9-5.4-4.9-11.6-3.4-17.9c2.5-10.5,7.7-19.3,15.7-26.3c7.4-6.5,15.3-12.3,22.6-18.8
					c8.5-7.4,7.5-14-2.9-18.1c-5.6-2.2-11.7-3.4-17.7-4.1c-14.8-1.9-29.6-2.8-44.4-4.8c-25.2-3.4-47,3.6-65.7,20.4
					c-19.6,17.5-38.2,36-58.1,53.1c-7.8,6.7-17.7,11.1-27,16.2c-2.3,1.2-5.4,1.4-8,1.2c-5.4-0.3-7.6-4.4-5.2-9.1
					c1.3-2.6,3.2-5,4.8-7.4c11.1-14.9,22.2-29.8,33.3-44.8c11.4-15.3,25.2-28.3,40.2-40.2c2.8-2.2,5.6-4.3,8.1-6.8
					c24.9-24.5,54.8-39.5,88.9-46.2c27.5-5.3,55.4-8.8,82.6-15.4c28.8-7,57.8-12.2,87.3-15.2C850,193,854.3,193.3,859.7,193.2z
					 M665,572.6c-21.9,4.3-43.8,8.5-65.7,12.9c-24.3,5-48.6,10.7-73,15.1c-21.9,3.9-44.1,6.6-66.3,9.2c-8.5,1-8.6,0.1-7.7-8.3
					c2.1-21.5,4.1-42.8,6.4-64.3c0.2-2.2,1.9-4.5,3.6-6.3c14.7-15.3,32.5-26.3,51.4-35.5c24.8-11.9,43.3-31.4,61.5-51.1
					c3.9-4.1,6.9-9.1,11.1-12.9c4.3-3.9,9.1-7.6,14.4-9.8c9.4-4.1,17.1-0.3,18.8,9.8c1,6,0.2,12.9-1.7,18.8
					c-3.4,10.5-11.1,18.2-19.8,25c-5.2,4.1-10.6,8.1-15.5,12.4c-9.3,8-8.2,15,3.2,19c6.1,2.1,12.5,3.2,18.8,4.1
					c12.9,1.7,25.9,2.1,38.6,4.2c28.3,4.7,52.2-3.6,72.9-22.7c17.7-16.4,35.3-32.7,52.9-49.2c8.3-7.8,17.6-13.8,28.3-17.3
					c2-0.7,4.3-1.4,6.3-1.2c2.5,0.4,6.1,1.2,7,2.9c1,2.1,0.7,6.1-0.8,8c-22.2,29.1-41,60.9-69.7,84.6
					c-20.3,16.9-39.3,35.6-63.9,46.3c-3.8,1.7-7.6,3.2-11.3,4.9C664.8,571.6,664.9,572.1,665,572.6z M644.4,311.4
					c-7.4-0.4-11.6,3.1-14,8.3c-5.5,11.8-10.2,24.2-16,35.9c-4.3,8.9-9.7,17.3-15,25.8c-1.3,2.1-3.4,4.3-5.6,5
					c-3.2,1.1-7.4,2.1-10.2,1c-1.7-0.6-2.5-5.8-2-8.7c1-6.2,2.7-12.2,4.9-18.1c5.2-13.7,11.1-27.2,16.4-40.9
					c7.6-19.5,22.3-28.4,42.8-28.9c4.1-0.1,8.3-0.3,12.3,0.1c18.9,1.9,37.7,3.9,56.6,6.1c4.2,0.5,8.3,2.1,12.2,3.8
					c1.4,0.6,1.9,3,2.8,4.5c-1.6,0.6-3.2,1.4-4.9,1.7c-14.3,1.7-28.7,3-43,4.9c-8.5,1.2-14.6,6.1-19,13.3c-4.9,8-9.6,16.3-15.4,23.7
					c-5,6.4-11.1,11.9-17.3,17.3c-1.7,1.4-5,1-7.6,1.4c-0.4-2.8-1.9-5.8-1.1-8.2c2.6-7.4,5.8-14.5,9.3-21.6
					C635.1,328.9,639.7,320.6,644.4,311.4z M667.5,491.5c7,1,11.1-3.2,13.5-8.4c5.6-11.8,10.1-24.3,15.9-36
					c4.5-9,10.1-17.6,15.4-26.2c1.2-1.9,3.2-3.9,5.2-4.5c3.2-1,7.2-2.1,9.7-1c1.8,1,2.6,5.6,2.4,8.5c-0.3,4.2-1.4,8.5-3,12.5
					c-6.5,16.6-13.1,33.1-19.9,49.7c-6.7,16.5-19.7,24.2-36.9,25.7c-3.9,0.3-7.8,0.8-11.7,0.4c-21.2-2.1-42.5-4.2-63.7-6.6
					c-3.4-0.3-6.9-1.7-10-3.3c-1.7-0.9-2.5-3.5-3.4-5c15.1-1.7,28.9-3.3,42.8-5c11.8-1.5,20.5-7.2,26.7-17.7
					c6.1-10.3,13-20.1,20.3-29.4c3.2-4,7.9-6.9,12.5-9.4c4.5-2.4,7.3-0.2,6.8,4.9c-0.3,2.7-1.1,5.4-2.3,7.8
					C681.3,462.9,674.5,476.9,667.5,491.5z M604,306.9c-0.6,2.2-0.6,3.3-1,4.3c-9.7,23.3-18.3,47.1-33.6,67.7
					c-6.1,8.2-14.2,12.8-24.1,14c-3,0.3-7.2-0.3-8.9-2.3c-1.4-1.5-0.7-6.2,0.7-8.5c5-8.1,9.8-16.6,16.2-23.7
					c15.5-16.9,31.8-32.9,47.8-49.4C601.6,308.6,602.4,308.1,604,306.9z M707.3,496.4c0.5-2.3,0.6-3.1,0.8-3.7
					c9.6-23.7,18.5-47.9,34-68.7c6.5-8.8,15.4-13.1,25.9-14.2c7.4-0.7,10.5,3.3,6.9,9.7c-5,8.9-10.2,17.8-16.9,25.2
					c-15.4,17-31.8,32.9-47.8,49.4C709.8,494.5,709.1,494.9,707.3,496.4z"/>
			</defs>
			<clipPath id="SVGID_00000074438815416660365090000004184584582950949822_">
				<use xlink:href="#SVGID_1_"  style="overflow:visible;"/>
			</clipPath>
			
				<g transform="matrix(1 0 0 1 0 -3.337860e-06)" style="clip-path:url(#SVGID_00000074438815416660365090000004184584582950949822_);">
				
					<image style="overflow:visible;enable-background:new    ;" width="2565" height="4560" xlink:href="../../../../Downloads/nahil-naseer-xljtGZ2-P3Y-unsplash.jpg"  transform="matrix(4.682428e-02 0.127 -0.127 4.682428e-02 870.3356 142.8799)">
				</image>
			</g>
		</g>
	</g>
</g>
</svg>
