<?xml version="1.0" encoding="utf-8"?>
<!-- Generator: Adobe Illustrator 26.0.1, SVG Export Plug-In . SVG Version: 6.00 Build 0)  -->
<svg version="1.1" id="Layer_1" xmlns="http://www.w3.org/2000/svg" xmlns:xlink="http://www.w3.org/1999/xlink" x="0px" y="0px"
	 viewBox="0 0 595.3 841.9" style="enable-background:new 0 0 595.3 841.9;" xml:space="preserve">
<g>
	<path d="M6.6,626.6c0-14.9,0-29.7,0-44.6c0-8.4,4.9-14.1,13.2-14.1c14.5-0.1,29.2-0.5,43.6,0.7c14.8,1.3,25.7,9.7,29,27.2
		c2.3,12.2,1.9,24.4-5.3,35.4c-7.8,11.8-19.7,15.4-33,15.8c-4.7,0.1-9.4,0.1-14.1,0c-3-0.1-4.3,1.1-4.3,4.3c0.2,7,0.2,13.9,0,20.9
		c-0.2,8.5-5.2,14-13.5,15C15.4,688,9,683.8,7,677c-0.5-1.7-0.6-3.5-0.6-5.2C6.6,656.7,6.6,641.7,6.6,626.6z M36.4,633
		c0.5,0.1,0.9,0.3,1.3,0.4c1.2-1.3,2.5-2.6,3.7-4c3-3.6,5.9-6.3,11.1-7.5c14.2-3.2,20.6-17.5,13.1-28.3c-4.7-6.9-12-8.7-20-8.2
		c-8.1,0.5-14.6,3.8-18,11.6c-3,6.9-0.9,13.7,5.2,20.1c1.6,1.7,2.4,4.3,2.9,6.6C36.4,626.7,36.3,629.9,36.4,633z"/>
	<path d="M453.3,619.4c-0.5,1.5-0.9,3.9-2,6c-16.8,31.8-33.7,63.5-50.5,95.2c-4.1,7.8-12.1,10.5-19.6,6.6
		c-7.1-3.7-9.5-11.8-5.6-19.6c4-7.9,8-15.8,12.4-23.5c3.2-5.6,3.1-10.9-0.1-16.4c-7.8-13.7-15.6-27.5-23.2-41.3
		c-4.5-8.1-2.4-16.4,4.9-20.4c7.3-4,15.8-1.7,20,5.7c4.9,8.5,9.5,17.2,14.4,25.7c0.9,1.6,2.7,3.9,3.8,3.7c1.6-0.3,3.4-2.1,4.3-3.8
		c4.8-8.6,9.2-17.4,13.9-26c3.1-5.7,8.1-8.1,14.6-7.2c6.1,0.8,9.8,4.5,11.8,10C453,615.5,453,617,453.3,619.4z"/>
	<path d="M217.3,689.8c-26.9,0.1-44.5-18.2-44.4-44.4c0-26.5,15.1-44.5,44.2-44.7c27.4-0.2,44,16.9,44,45.1
		C261.1,672.7,244.2,689.7,217.3,689.8z M217.5,663.9c10.9-0.1,18.3-7.7,18.3-18.9c0-10.9-7.8-18.5-18.7-18.6
		c-10.7,0-18.7,8-18.5,18.7C198.7,656.5,206.3,664,217.5,663.9z"/>
	<path d="M290.2,604.2c4.7-0.6,8.1,1.2,10.8,4.5c2.5,3.1,5.2,6.1,7.9,9.1c3.4,3.8,4.9,3.8,8.5-0.1c2.9-3.2,5.6-6.7,8.7-9.8
		c5.2-5.3,13.6-5.4,19.1-0.4c5.4,4.9,5.8,13.3,0.9,19.1c-3.4,4.1-6.8,8.2-10.3,12.2c-2.4,2.7-2.6,5.3,0,8.1
		c4.9,5.3,9.6,10.9,14.5,16.2c5.9,6.3,6,14.7,0.1,20.2c-5.7,5.4-14.5,4.8-20.2-1.5c-4.4-4.7-8.8-9.4-13.1-14.2
		c-2.9-3.3-5.4-3.3-8.3,0.1c-4.2,4.9-8.6,9.6-13.2,14.2c-6.5,6.6-14.4,7-20.2,1.3c-5.7-5.6-5.6-13.5,0.3-20.3
		c4.6-5.2,9-10.5,13.8-15.5c3.2-3.3,2.7-6.1,0.1-9.3c-3.4-4.1-6.9-8.1-10.1-12.4c-3.4-4.5-4-9.5-1.3-14.5
		C280.8,606.6,284.7,603.7,290.2,604.2z"/>
	<path d="M104.2,645.7c0-8.6-0.1-17.1,0-25.7c0.1-8.1,3.2-12.7,9.7-15c6.5-2.4,11.4-0.8,16.9,5.7c2.6,3.1,5.2,2.7,7.9,0.3
		c4.3-3.8,9-6.8,15-7.1c6.8-0.4,12.3,4.3,12.9,11c0.5,6.7-4.8,12.9-11.4,13.2c-13.9,0.7-20.8,7.3-21.7,21.4
		c-0.5,7.6-0.1,15.2-0.4,22.8c-0.3,7.4-3.8,12.1-9.8,14c-6.1,1.9-12.3,0.4-15.9-4.9c-1.8-2.7-2.7-6.5-2.9-9.9
		C104,662.9,104.2,654.3,104.2,645.7L104.2,645.7z"/>
	<path d="M528.8,687.3c-15.4,0-30.7,0-46.1,0c-8.7,0-13.8-5.1-13.8-13.7c0-30.4,0-60.8,0-91.1c0-10.2,5-15.1,15.2-15.1
		c30.1,0,60.2,0,90.3,0c8.7,0,14.5,5.9,14.5,14.5c0,30.4,0,60.8,0,91.1c0,9.1-5.3,14.3-14.5,14.3C559.2,687.4,544,687.4,528.8,687.3
		L528.8,687.3z M528.7,572.4c-14.4,0-28.8-0.2-43.2,0.1c-9.7,0.1-11.9,2.6-11.9,12.3c0,28.8,0,57.5,0,86.3c0,8.2,3,11.7,11.1,11.7
		c29.3,0,58.6,0,87.9,0c8.4,0,11.4-3.1,11.4-11.4c0-29.1,0-58.2,0-87.3c0-9.1-2.7-11.7-12-11.7C557.5,572.4,543.1,572.4,528.7,572.4
		z"/>
	<path d="M523.7,606.6c12.5,0,25.2,0,38.3,0c0-1.4,0-2.9,0-4.9c-10.9,0-21.7,0-33.2,0c0-6.8,0-13.1,0-19.7c13.5,0,26.5,0,39.7,0
		c0,3,0,5.7,0,9.5c-4.8-7.4-11.6-4.7-17.7-5c-5.6-0.3-11.3-0.1-17-0.1c-0.3,1-0.7,1.7-0.8,2.5c-1,7.3-0.6,7.8,6.7,7.8
		c7,0,13.9,0,20.9,0c5.8,0.1,8.5,2.5,8.1,8.1c-0.8,10.3,1.9,20,3.9,30c0.7,3.4-1.2,7.3-2.1,10.9c-0.2,0.6-1.5,1.2-2.4,1.2
		c-3.8,0.1-7.7,0.1-11.5,0.1c-0.3-0.4-0.5-0.9-0.8-1.3c1.2-1.3,2.3-3.2,3.8-3.8c4.9-2.1,5.6-4.3,2.1-8.1c-0.9-0.9-1.7-1.9-3.4-3.7
		c-3.5,5.6-6.7,10.8-10.3,16.6c-3.5,0-8.1,0-12.8,0c5.2-8.1,10.3-16.1,15.4-24c-0.4-0.4-0.8-0.8-1.2-1.2c-1.8,0.8-3.6,1.5-5.2,2.5
		c-5.3,3-10.8,4.6-17,4.2c-6.7-0.4-9.8,5.5-6.4,11.4c0.4,0.7,1,1.4,1.2,2.1c0.6,3,0.6,5.6-3.7,5.4c-3.7-0.1-7.4,0-11.7,0
		c0.3-1.7,0.1-3.1,0.8-4c3.8-5.1,3.9-5.2-0.4-12c-2.7,5.3-8.6,8.5-8.4,15.6c-4,0-7.9,0-13.5,0c1.8-2.6,2.8-4.8,4.5-6.3
		c6-5.4,7.4-11.1,4.1-19c-1.3,0.5-2.6,1-4.5,1.8c1.9-5.5,3.6-10.7,5.5-15.7c1.1-2.9,2.2-5.7-0.5-8.5c-0.6-0.6-0.1-2.4-0.1-4.3
		c2.2,1.4,3.6,2.3,5.6,3.5c0.8-1.4,1.7-2.7,2.5-4.1c-0.2-0.4-0.4-0.9-0.6-1.3c-4.1,0.6-8.2,1.2-13,1.9c0,0-0.2-1.5-0.4-3.5
		c4.8,0,9.2,0,13.6,0c0-0.4,0-0.8,0-1.2c-2.3,0-4.6,0-7.3,0c-0.5-1.8-1.1-3.8-1.6-6c9.6-1.3,18.7-2.6,28.1-4
		C521.7,588.7,522.7,597.5,523.7,606.6z"/>
	<path d="M536.4,652.9c1.9,1.3,4,2,4.3,3c1.3,6.4,2.1,12.8,2,19.7c-1.4-1.6-2.8-3.2-4.2-4.8c-1.4,1.6-2.8,3.2-4.2,4.9
		c-0.4-0.1-0.8-0.2-1.2-0.2C534.1,668.4,535.1,661.3,536.4,652.9z"/>
	<path d="M485.7,654.1c8.4-1.2,9.1-0.6,9.1,7.1c0,2.3,0,4.5,0,6.8c0,7.6-1,8.4-9.1,7.1C485.7,668.1,485.7,661.1,485.7,654.1z
		 M488.2,672.6c4.3-0.9,5-3.4,3.8-13c-0.2-1.3-1.7-2.4-2.7-3.6c-0.4,0.3-0.8,0.5-1.2,0.8C488.2,662,488.2,667.1,488.2,672.6z"/>
	<path d="M526.9,662.3c0.3-3.3,0.6-6,0.8-8.7c0.5,0,1,0.1,1.5,0.1c0,7.3,0,14.5,0,21.8c-0.5,0-1,0.1-1.6,0.1
		c-0.2-2.2-0.1-4.4-0.6-6.5c-0.3-1.2-1.4-2.3-2.1-3.4c-0.6,1.1-1.5,2.1-1.8,3.3c-0.5,2.2-0.5,4.4-0.7,6.7c-0.5-0.1-1-0.1-1.5-0.2
		c0-7.2,0-14.5,0-22.1C525.6,655.2,519.6,662.5,526.9,662.3z"/>
	<path d="M548.7,677.2c-1-1.1-2.9-2.1-2.9-3.2c-0.3-6.9-0.1-13.8-0.1-21c1.6,0,2.8,0,4.2,0c0,7.8,0,15.4,0,22.9
		C549.5,676.3,549.1,676.8,548.7,677.2z"/>
	<path d="M500.4,672.2c3.3,0.8,4.7,1.2,6.1,1.6c-0.1,0.5-0.2,0.9-0.3,1.4c-2.6,0-5.1,0-7.9,0c0-7.1,0-14.1,0-21.6
		c2.9,0.2,5.4,0.3,8,0.5c0,0.5,0,1.1,0,1.6c-1.6,0.3-3.2,0.7-6,1.3c1.2,2.5,2.3,4.7,3.3,6.8C502.7,666.1,501.6,669.1,500.4,672.2z"
		/>
	<path d="M574,654.3c-2.9,2-5.3,2.9-6,4.5c-0.5,1,1.5,3.2,2.7,5.5c-1.7,1.5-4.8,3.7-2.4,8c1.5,0.4,3.2,0.7,4.8,1.1
		c0.1,0.5,0.1,1.1,0.2,1.6c-2.5,0.3-4.9,0.5-7.9,0.8c0-7.6,0-14.8,0-22.5C568.2,653.7,570.8,654,574,654.3z"/>
	<path d="M551.8,675.4c2.2-6.4,4.3-12.3,6.4-18.5c-1.8-0.5-3.4-1-5-1.5c0.1-0.5,0.1-1,0.1-1.4c2.7-0.2,5.3-0.4,9.2-0.6
		c-1.3,3.9-2.3,6.8-3.4,9.8c-1,2.8-2,5.7-3,8.3c2,1,3.7,1.9,5.5,2.8c-2.2,0.5-4.3,1-6.5,1.3C554.5,675.7,553.7,675.5,551.8,675.4z"
		/>
	<path d="M512.4,653.8c0,3.5,0,7,0,10.4c0.1,4.2-1.7,9.4,5.4,9.7c0,0,0.1,0.6,0.1,1.3c-2.6,0-5.1,0-7.6,0c0-7.1,0-14.3,0-21.4
		C511,653.8,511.7,653.8,512.4,653.8z"/>
</g>
</svg>
