<?xml version="1.0" encoding="utf-8"?>
<!-- Generator: Adobe Illustrator 26.0.1, SVG Export Plug-In . SVG Version: 6.00 Build 0)  -->
<svg version="1.1" id="Layer_1" xmlns="http://www.w3.org/2000/svg" xmlns:xlink="http://www.w3.org/1999/xlink" x="0px" y="0px"
	 viewBox="0 0 595.3 841.9" style="enable-background:new 0 0 595.3 841.9;" xml:space="preserve">
<g>
	<path d="M161.2,436c-7.1-10-14.4-18.8-20.3-28.5c-16.9-28-20.2-57.3-5.6-87.1c11.9-24.3,32.6-38,58.4-43.9
		c29.1-6.7,56.6-2.7,79.7,17.2c39.8,34.3,38.3,92.7-3.5,125c-12.7,9.8-27.6,16.7-41.8,24.3c-7.4,4-7.9,4-1.9,10.2
		c24.2,25.1,48.5,50,72.5,75.2c4.1,4.3,6.5,4.9,10.9,0.3c24.3-25.6,49-50.8,73.4-76.2c1.5-1.5,2.7-3.2,4.8-5.6
		c-7.9-3.7-15-6.9-21.9-10.3c-18.8-9.5-35.6-21.5-47.2-39.6c-18.1-27.9-15.6-67.5,5.8-92.8c27.4-32.2,75.9-40.2,114.4-18.6
		c42.7,23.8,56.1,75.6,30.6,118.8c-5.4,9-12,17.2-18.1,25.7c-1.2,1.8-2.6,3.4-4.5,5.9c3.8,1.9,7,3.7,10.3,5.2
		c21.5,9.6,40.8,22.1,55.6,40.9c15.1,19.3,21.5,41.1,20,65.6c-3.3,55.4-48.5,89.3-98.4,93.1c-50,3.8-90.5-15.8-124.2-51.3
		c-5.7-6-5.8-6-11.7,0c-21,21.8-45,39.3-74.8,46.8c-38.6,9.6-75.8,6.8-109.2-17.3C79,593.6,65.3,544.6,82.4,504.4
		c10.3-24.1,28.2-41.4,50.8-54C142.3,445.3,151.5,440.9,161.2,436z M422.5,611.2c16.8-0.1,30.4-4.1,45.5-13.1
		c33.4-20.1,41.6-69.7,17-100.2c-14.7-18.2-34.1-29.2-55.2-37.8c-4-1.6-6.6-0.3-9.3,2.5c-29.9,31.1-59.8,62.2-89.8,93.1
		c-3.9,4-3.5,6.9,0.2,10.4c3.9,3.6,7.3,7.6,11.2,11.1C365,597.8,391,611.1,422.5,611.2z M189.9,611.4c4.7-0.7,13.3-1.3,21.5-3.3
		c27.1-6.8,48.3-23.1,66.9-43.1c3-3.2,3.1-5.6-0.2-8.8c-9.6-9.5-18.9-19.4-28.3-29.2c-20.8-21.6-41.7-43.1-62.4-64.7
		c-3.1-3.1-6.2-4.4-10.4-2.3c-5.8,3-11.9,5.6-17.6,8.8c-18.8,10.6-35.8,23.1-44.8,43.9c-11.1,25.8-5.1,58.1,15.1,76.9
		C145.6,604.3,164.7,610.7,189.9,611.4z M267.9,355.1c-0.1-13-4-25.2-13.3-34.9c-18.9-19.6-49.4-21.8-72.8-5.6
		c-20.4,14.2-27.1,42.3-15.8,66.5c7.1,15.4,18.2,27.8,29.7,39.8c1.3,1.4,5,1.9,7,1.2c16.6-5.4,32-13,45.3-24.6
		C260.5,386.4,267.6,372.7,267.9,355.1z M390.7,303.8c-16.6,0.6-32.7,7.2-42.6,24.3c-10.9,18.9-10.7,38.4,1.4,56.6
		c13.7,20.5,35.1,30.4,57.7,37.9c1.9,0.6,5.4-0.9,6.8-2.6c8.7-10.6,18.2-20.9,25.4-32.6C462.4,348.9,438.3,305.3,390.7,303.8z"/>
	<path d="M362,776.4c-4,13.1-7.9,26.3-11.8,39.4c-1.2,4.2-2.2,8.5-4,12.5c-1.2,2.8-3.4,5-5.2,7.5c-2-2.5-4.9-4.7-5.8-7.6
		c-4.9-15.5-9.3-31-13.9-46.5c-0.5-1.7-1.1-3.2-3.1-5c-1.2,7.3-2.4,14.5-3.5,21.8c-1.5,10.2-2.8,20.4-4.3,30.6
		c-0.5,3.3-1,7.4-5.5,6.4c-1.6-0.4-3.4-4.8-3.1-7.1c2.5-17.1,5.6-34.1,8.4-51.1c0.6-3.1,0.4-6.4,1.8-8.9c1.4-2.5,4.2-5.6,6.5-5.7
		c2.2-0.1,5.7,3.1,6.5,5.5c4.4,13.1,8,26.4,11.9,39.5c1,3.3,2,6.6,4.6,10c2.4-8,4.9-15.9,7.3-23.9c2.5-8.4,4.4-16.9,7.4-25.2
		c0.9-2.7,4.6-6.1,6.9-6c2.3,0.1,6,3.8,6.5,6.4c3.8,19.5,7.1,39.2,10.4,58.8c0.6,3.1,1.2,7.2-3.5,7.8c-4.5,0.6-4.8-3.2-5.3-6.7
		c-2.5-17.5-5.1-35-7.7-52.5C363.1,776.6,362.6,776.5,362,776.4z"/>
	<path d="M173.1,817.3c0-3.6,0-7.2,0-10.8c0-12.7-0.2-25.5,0.3-38.1c0.1-2,3-4,4.6-5.9c1.3,1.9,3.7,3.8,3.7,5.7
		c0.3,20.6,0.3,41.2,0.1,61.8c0,1.9-1.6,3.7-2.4,5.6c-2.2-1-5.2-1.4-6.5-3.1c-11.4-15.7-22.5-31.8-33.7-47.7c-1-1.4-2.1-2.7-4.1-5.3
		c-0.3,3.1-0.6,4.8-0.6,6.6c-0.1,14.3,0.2,28.5-0.2,42.7c-0.1,2.4-2.1,6.6-3.8,6.9c-4.4,0.7-4.8-3.3-4.8-6.8
		c0-19.7-0.2-39.4,0.1-59.2c0-2.4,2-4.8,3.1-7.3c2.2,1.4,5.3,2.1,6.7,4.2c10.8,15.1,21.4,30.5,32,45.6c1.3,1.9,2.8,3.6,4.1,5.5
		C172.1,817.5,172.6,817.4,173.1,817.3z"/>
	<path d="M357.9,712.6c7.3,8.1,14,14.9,20.1,22.3c2,2.4,7.4,5.2,3.3,9.1c-4.2,4-7-0.9-9.4-3.6c-8.2-8.7-16.2-17.6-25.9-26.1
		c0,6.6,0,13.2,0,19.8c0,2.6,0.4,5.4-0.4,7.8c-0.5,1.5-2.6,3.3-4.1,3.3c-1.4,0-3.1-1.9-4-3.3c-0.6-1.2-0.3-3-0.3-4.5
		c0-19.5,0-39,0-58.5c0-7.7,1-8.6,8.8-8.6c5.5,0,11-0.2,16.4,0.7c12.5,2,19.5,10.1,19.2,21.1c-0.4,11.5-6.5,17.7-19.6,19.7
		C361.1,711.9,360.4,712.2,357.9,712.6z M346,691.6c0,14.7,0.6,15.4,15.6,13.1c3-0.5,6.4-1.9,8.4-4.2c4.1-4.4,3.6-12.3,0-17.1
		c-3.4-4.5-15.5-8.1-21.1-4.5c-2.4,1.5-2,7.5-2.9,11.4C345.9,690.7,346,691.1,346,691.6z"/>
	<path d="M427.1,796c13.5,8.1,16.9,17.6,10.5,29.1c-4,7-10.6,9.7-18,10.4c-6.1,0.6-12.2,0.1-18.3,0.2c-4.4,0.1-6.2-2-6.2-6.4
		c0.1-19.9,0.1-39.8,0-59.7c0-4.3,1.8-6.8,6-6.8c5.6,0,11.4-0.2,17,0.5c7.5,0.8,13.6,4.4,15.6,11.9c1.9,7.3,0.9,14.4-5.7,19.5
		C427.7,794.8,427.4,795.5,427.1,796z M403.4,801c0,5.1,0,9.4,0,13.7c0,14.3,0,14.3,14.4,13.1c1.1-0.1,2.2-0.2,3.2-0.5
		c6.7-1.9,11.1-7.7,10.8-14c-0.4-6.9-5.1-11.8-12.9-12.4C414.3,800.7,409.5,801,403.4,801z M403.6,793.7c4.1,0,7,0.1,10.1,0
		c5.6-0.3,10.9-2.2,11.6-8.3c0.5-4-0.6-10.6-3.1-11.9c-4.7-2.6-11.1-2.2-16.8-2.8c-0.6-0.1-1.8,2-1.8,3.1
		C403.5,780.1,403.6,786.6,403.6,793.7z"/>
	<path d="M405.5,703.6c6.4,0,11.8-0.1,17.2,0c3.2,0.1,7.5-0.2,7,4.4c-0.2,1.6-4.4,3.7-6.8,3.8c-19.8,0.8-20,0.9-16.8,24.8
		c6,0,12.3-0.4,18.5,0.2c2.4,0.2,6.4,2.3,6.6,4c0.6,4.4-3.5,4-6.5,4.1c-7,0.1-14.1-0.2-21,0.1c-4.9,0.2-7.4-1.8-7.3-6.9
		c0.1-20.4,0-40.7,0-61.1c0-4.3,2.1-6.6,6.4-6.6c7.7-0.1,15.4-0.4,23,0.2c2,0.2,3.9,2.9,5.8,4.4c-2.1,1.3-4.1,3.5-6.3,3.8
		c-5,0.6-10.1,0.3-15.1,0.2c-3.1-0.1-5,0.7-4.9,4.4C405.6,689.7,405.5,696,405.5,703.6z"/>
	<path d="M297.2,727.9c2-5.6,4.2-11.3,6.1-16.9c3.9-10.9,7.6-21.8,11.5-32.8c0.6-1.7,0.8-3.7,1.9-4.8c1.5-1.4,3.8-2,5.7-3
		c0.6,2,2.2,4.4,1.7,6.1c-3.4,10.8-7.3,21.6-11.1,32.2c-3.6,10.3-7.2,20.6-11.3,30.7c-0.9,2.3-3.5,3.9-5.4,5.8
		c-1.9-1.9-4.6-3.4-5.5-5.6c-7.6-20.6-14.9-41.1-21.9-61.8c-0.7-2,0.8-4.9,1.3-7.4c2.2,1.6,5.6,2.7,6.4,4.7
		c5.7,15.1,10.9,30.5,16.3,45.7c0.8,2.3,1.8,4.6,2.7,6.9C296.2,727.9,296.7,727.9,297.2,727.9z"/>
	<path d="M253.5,798.9c0-9-0.1-18,0-26.9c0.1-8.1,1.4-9.4,9.7-9.4c6.1-0.1,12.3-0.4,18.4,0.2c2.3,0.3,4.4,2.8,6.7,4.4
		c-2.1,1.3-4.2,2.8-6.5,3.9c-1.1,0.5-2.6,0-3.9,0.1c-4.9,0.4-13.4-0.5-14.2,1.5c-2.1,5.8-1.4,12.8-1.2,19.3c0,1.2,2.8,3.1,4.4,3.3
		c4.8,0.5,9.6-0.2,14.4,0.5c1.9,0.2,3.3,2.5,5,3.9c-1.8,1.2-3.4,3.1-5.3,3.3c-4.4,0.6-8.8,0.4-13.1,0.1c-4.7-0.3-6.2,1.9-5.9,6.3
		c0.2,3.5,0.5,7-0.1,10.5c-0.9,6.7,2.1,8.4,8.1,7.9c4.4-0.4,8.8-0.5,13.1,0.2c1.8,0.3,3.2,2.6,4.9,4c-1.5,1.3-3,3.6-4.4,3.7
		c-8.3,0.4-16.7,0.4-25,0.1c-4.8-0.1-5.2-4.1-5.3-7.6c-0.2-4.8-0.1-9.6-0.1-14.4C253.5,808.5,253.5,803.7,253.5,798.9z"/>
	<path d="M206.4,730.3c5.4-15.5,10.2-29.3,15-43.1c1.4-3.9,2.3-8.1,4.3-11.7c1.2-2.2,4.1-3.4,6.2-5.2c0.6,2.7,2.3,5.7,1.6,8
		c-5.2,15.6-10.8,30.9-16.4,46.4c-1.7,4.7-3.1,9.6-5.3,14.2c-1.2,2.5-3.7,4.4-5.6,6.5c-1.9-2.3-4.8-4.4-5.8-7
		c-6.3-16.8-12.2-33.7-18.3-50.6c-1.3-3.5-3.1-6.9-3.6-10.5c-0.4-2.1,1-4.6,1.7-6.9c2.1,1.4,5.4,2.3,6.1,4.2
		c5.6,15.1,10.8,30.5,16.2,45.7C203.5,723.1,204.7,725.9,206.4,730.3z"/>
	<path d="M218,761.2c4.7,1.6,9.5,2.9,14,5c1.6,0.7,1.9,3.7,3,5.7c-2.3,0.4-4.6,1.2-6.9,0.9c-4.4-0.6-8.7-2.7-13.1-2.8
		c-5.2-0.1-9.1,3.8-8.9,8.7c0.1,3.4,2.7,8,5.6,9.9c5,3.3,11.1,5,16.8,7.4c7.7,3.1,11.9,8.9,11.9,17.2c-0.1,8.7-3.9,15.7-11.9,19.8
		c-9.3,4.7-18.8,4.2-27.8-0.5c-2.1-1.1-4.7-5.5-4-7.2c1.6-4.3,4.8-0.9,7.6-0.2c4.7,1.3,9.7,2.9,14.5,2.8c6.6-0.2,10.8-5.2,11.9-11.9
		c1-6.5-2.2-10.5-7.8-12.9c-4.6-2-9.4-3.6-14-5.6c-9.9-4.4-13.9-10.9-12.2-19.8c1.5-7.8,9.6-14.6,18.3-15.5c0.8-0.1,1.8,0,2.6,0
		C217.8,761.9,217.9,761.6,218,761.2z"/>
	<path d="M84.4,802.8c0,8.5,0,16,0,24.5c6.4,0,12.5-0.4,18.5,0.2c2.2,0.2,5.8,2,6.2,3.7c0.8,4.4-3.1,4.4-6.2,4.4
		c-7,0.1-14-0.1-21,0.1c-4.7,0.1-6.6-2-6.6-6.8c0.2-19.7,0.2-39.4,0-59.2c0-5,2-7.2,7-7.2c7,0.1,14.1-0.3,21,0.2
		c2.1,0.2,4.2,2.7,6.2,4.2c-2.1,1.4-4.1,3.6-6.3,3.9c-4.5,0.6-9.2,0.4-13.8,0.2c-3.9-0.2-5.6,1.3-5.5,5.3c0.2,4.6,0.2,9.2,0,13.8
		c-0.2,4.2,1.8,5.4,5.6,5.2c4.2-0.2,8.4-0.5,12.4,0.2c2.1,0.3,3.9,2.4,5.8,3.6c-1.9,1.3-3.7,3.4-5.7,3.6
		C96.6,803.2,90.8,802.8,84.4,802.8z"/>
	<path d="M499.9,799.4c0-9.2-0.1-18.4,0-27.6c0.1-8.1,1.3-9.2,9.2-9.3c6.6,0,13.1-0.3,19.7,0.3c1.9,0.2,3.7,2.6,5.6,4
		c-1.9,1.4-3.6,3.7-5.6,4c-5,0.6-10.1,0.4-15.1,0.2c-3.6-0.1-4.9,1.3-5.2,4.9c-1.4,18.8-1.5,18.8,17.2,19.3c0.6,0,1.5-0.2,1.9,0.1
		c1.8,1.2,3.4,2.5,5.2,3.8c-1.7,1.2-3.2,3.3-5.1,3.5c-4.4,0.6-8.8,0.4-13.1,0.1c-4.1-0.2-5.8,1-6.1,5.5c-1,19.2-1.2,19.2,18,19.2
		c1.6,0,3.3-0.4,4.5,0.4c1.4,0.8,3,2.6,3.1,4.1c0.2,1-1.9,3.4-3,3.4c-9.2,0.3-18.4,0.4-27.6-0.3c-1.4-0.1-3.4-4.3-3.5-6.7
		C499.6,818.6,499.9,809,499.9,799.4L499.9,799.4z"/>
	<path d="M463.4,827.3c6,0,11.4-0.1,16.9,0c3,0.1,7-0.2,6.4,4.3c-0.3,1.6-3.9,3.5-6.1,3.7c-6.1,0.6-12.2,0-18.3,0.2
		c-4.6,0.2-7.1-1.9-7.1-6.5c-0.1-20.4-0.2-40.7,0.2-61.1c0-1.9,3.1-3.8,4.7-5.6c1.2,2,3.3,4,3.3,6.1c0.3,16.7,0.2,33.2,0.2,49.9
		C463.4,821,463.4,823.5,463.4,827.3z"/>
	<path d="M255.5,707.3c0,10.5,0,21,0,31.5c0,3.3-0.4,6.9-4.4,6.2c-1.7-0.3-4-3.9-4.1-6.1c-0.3-20.7-0.3-41.5,0-62.2
		c0-2.2,3-4.4,4.5-6.5c1.3,2.3,3.6,4.6,3.8,7C255.7,687.3,255.5,697.4,255.5,707.3z"/>
</g>
</svg>
